<svg width="171" height="42" viewBox="0 0 171 42" fill="none" xmlns="http://www.w3.org/2000/svg">
<g clip-path="url(#clip0_1037_6229)">
<path d="M92.8438 32.9142H114.781V30.2136H96.6046V21.572H110.257V18.8395H96.6046V10.8779H114.781V8.18713H92.8438V32.9142Z" fill="#878787"/>
<path d="M104.244 4.18994L101.273 7.55277L110.597 4.18994H104.244Z" fill="#878787"/>
<path d="M151.609 30.2136V8.18713H148.18V32.9142H170.357V30.2136H151.609Z" fill="#878787"/>
<path d="M128.999 8.18713L116.523 32.9142H120.74L123.932 26.5141H138.894L142.113 32.9142H146.286L133.801 8.18713H128.999ZM125.511 23.4147L131.39 11.6039L137.337 23.4147H125.511Z" fill="#878787"/>
<path d="M80.9436 22.5745C86.5644 21.063 87.1105 16.848 87.082 15.3411C86.7465 10.9237 83.7934 8.18713 78.4871 8.18713H63.0234V32.9142H66.5486V22.5416H76.6158L84.022 32.9142H88.4652C88.4652 32.9142 83.1353 25.9333 80.9436 22.5745ZM78.0058 19.6199H66.5486V11.1139H78.405C81.1348 11.1139 82.6703 12.3983 83.2235 14.0298C83.5894 15.1481 83.3548 16.6163 82.7494 17.6158C81.7585 19.2683 79.8762 19.6199 78.0058 19.6199Z" fill="#878787"/>
<path d="M41.8349 4C31.8839 4 25.1016 11.0711 25.1016 19.6296C25.1016 28.6395 32.5937 35 41.8349 35C51.0699 35 58.5591 28.7303 58.5591 19.6296C58.5591 11.0711 51.6928 4 41.8349 4ZM41.7155 31.9306C34.8309 31.9306 29.1584 26.3548 29.1584 19.6379C29.1584 12.9303 34.5631 7.08741 41.9824 7.08741C49.2178 7.08741 54.5364 12.9303 54.5364 19.6379C54.5364 26.3546 48.5971 31.9306 41.7155 31.9306Z" fill="#878787"/>
<path d="M16.2266 16.9347H18.7702L23.3872 8.18713H19.6718L16.2266 16.9347Z" fill="#878787"/>
<path d="M3.79019 30.2136V8.18713H0.359375V32.9142H22.5357V30.2136H3.79019Z" fill="#878787"/>
</g>
<defs>
<clipPath id="clip0_1037_6229">
<rect width="170" height="31" fill="white" transform="translate(0.359375 4)"/>
</clipPath>
</defs>
</svg>
