<svg width="177" height="60" viewBox="0 0 177 60" fill="none" xmlns="http://www.w3.org/2000/svg">
<path d="M23.7571 35.6941C27.5786 36.7049 31.5975 36.7049 35.419 35.6941C36.4819 35.4111 37.6157 35.679 38.4408 36.4067L52.4057 48.7176C51.0188 50.4257 49.4396 51.9772 47.7035 53.3367L36.2086 43.204C35.7075 42.7592 35.0141 42.5975 34.3662 42.7693C33.4855 43.0018 32.8781 43.7952 32.8781 44.7049V59.4011C31.8 59.5224 30.7016 59.5881 29.5881 59.5881C28.4745 59.5881 27.3761 59.5224 26.298 59.4011V44.7049C26.298 43.7952 25.6856 43.0018 24.8099 42.7693C24.162 42.5975 23.4737 42.7592 22.9675 43.204L11.4726 53.3367C9.73649 51.9772 8.15728 50.4257 6.7704 48.7176L20.7353 36.4067C21.5604 35.679 22.6942 35.4111 23.7571 35.6941Z" fill="#8F67FF"/>
<path d="M37.7312 31.6955C36.6971 27.8858 34.6877 24.4107 31.9002 21.6117C31.1233 20.8341 30.7887 19.7199 31.0074 18.6426L34.7031 0.411987C36.8781 0.757111 39.0135 1.34688 41.0607 2.16834L38.0193 17.1741C37.8841 17.8297 38.0905 18.5102 38.5635 18.9845C39.2055 19.6298 40.1974 19.7583 40.9864 19.3034L53.7335 11.9553C54.3778 12.8269 54.984 13.7438 55.5408 14.7066C56.0975 15.6695 56.5897 16.6521 57.0236 17.645L44.2765 24.9931C43.4874 25.4479 43.1055 26.3742 43.3416 27.2476C43.5165 27.8937 44.001 28.4081 44.6398 28.6234L59.1761 33.4964C58.865 35.6773 58.3089 37.8186 57.5207 39.8719L39.8601 33.9521C38.8164 33.6026 38.0172 32.7561 37.7312 31.6955Z" fill="#8F67FF"/>
<path d="M27.2759 21.6118C24.4884 24.4108 22.479 27.8858 21.4449 31.6956C21.1589 32.7562 20.3597 33.6026 19.316 33.9521L1.65538 39.8719C0.867206 37.8186 0.31109 35.6773 0 33.4964L14.5363 28.6234C15.1726 28.4125 15.6596 27.8937 15.8345 27.2476C16.0732 26.3698 15.6887 25.4479 14.8997 24.9931L2.15254 17.645C2.5864 16.6521 3.07859 15.6695 3.63537 14.7067C4.19214 13.7438 4.79831 12.8269 5.44257 11.9553L18.1897 19.3034C18.9787 19.7583 19.9732 19.6254 20.6126 18.9845C21.0856 18.5102 21.2895 17.8341 21.1569 17.1741L18.1154 2.16836C20.1627 1.3469 22.298 0.757127 24.473 0.412003L28.1687 18.6426C28.3874 19.7199 28.0528 20.8342 27.2759 21.6118Z" fill="#8F67FF"/>
<path d="M166.094 22.0746H176.686V24.367H168.95V28.7118H176.237V31.0043H168.95V35.611H177.001V37.9253H166.094V22.0746Z" fill="#8F67FF"/>
<path d="M151.73 22.0746H156.723C158.657 22.0746 160.186 22.2711 161.243 22.8606C162.39 23.5156 163.087 24.629 163.087 26.201C163.087 27.9477 162.053 29.345 160.051 29.8035V29.869C162.233 30.2183 163.425 31.5283 163.425 33.5806C163.425 35.3709 162.525 36.6154 161.131 37.2703C159.961 37.8162 158.545 37.9253 156.633 37.9253H151.73V22.0746ZM156.768 35.6984C158.724 35.6984 160.524 35.3709 160.524 33.3622C160.524 31.4628 159.152 31.0261 156.655 31.0261H154.586V35.6984H156.768ZM156.61 28.7991C158.162 28.7991 160.299 28.6026 160.299 26.5503C160.299 24.6072 158.702 24.3234 156.7 24.3234H154.586V28.7991H156.61Z" fill="#8F67FF"/>
<path d="M140.432 22.0746H143.896L149.946 37.9253H146.932L145.38 33.6461H138.881L137.374 37.9253H134.428L140.432 22.0746ZM144.616 31.3536L143.716 28.8646C143.199 27.4018 142.636 25.8299 142.232 24.3452H142.097C141.624 25.808 141.175 27.38 140.612 28.8646L139.668 31.3536H144.616Z" fill="#8F67FF"/>
<path d="M119.335 22.0746H123.293C124.126 23.5156 127.004 29.1266 127.454 29.9781C128.736 32.4234 129.546 34.0391 129.973 35.0652H130.13C130.04 33.4932 129.995 31.2663 129.995 29.9563L129.973 22.0746H132.627V37.9253H128.646C127.904 36.6809 125.16 31.1571 124.71 30.3493C123.046 27.2708 122.371 25.8299 121.944 24.7819H121.787C121.832 26.3757 121.966 28.7336 121.966 30.0436L121.989 37.9253H119.335V22.0746Z" fill="#8F67FF"/>
<path d="M102.534 22.0746H106.492C107.324 23.5156 110.203 29.1266 110.653 29.9781C111.934 32.4234 112.744 34.0391 113.171 35.0652H113.329C113.239 33.4932 113.194 31.2663 113.194 29.9563L113.171 22.0746H115.825V37.9253H111.845C111.102 36.6809 108.359 31.1571 107.909 30.3493C106.245 27.2708 105.57 25.8299 105.143 24.7819H104.985C105.03 26.3757 105.165 28.7336 105.165 30.0436L105.188 37.9253H102.534V22.0746Z" fill="#8F67FF"/>
<path d="M91.2361 22.0746H94.6995L100.749 37.9253H97.7357L96.1839 33.6461H89.6843L88.1775 37.9253H85.2313L91.2361 22.0746ZM95.4192 31.3536L94.5196 28.8646C94.0024 27.4018 93.4401 25.8299 93.0353 24.3452H92.9004C92.4281 25.808 91.9783 27.38 91.416 28.8646L90.4715 31.3536H95.4192Z" fill="#8F67FF"/>
<path d="M64.4609 22.0746H67.4071L69.2737 30.9824C69.4762 31.9431 69.836 34.0172 69.9934 34.9779H70.1508C70.3308 34.0172 70.7581 31.9431 71.0055 30.9824L73.2095 22.0746H77.0327L79.2142 30.9824C79.5066 32.1396 79.664 33.1221 80.0463 34.9779H80.1813C80.5411 33.1221 80.721 32.1614 80.9684 30.9824L82.8351 22.0746H85.5114L81.8006 37.9253H78.1347L75.9532 28.8865C75.6608 27.6638 75.4584 26.6595 75.0761 24.76H74.9412C74.5588 26.6377 74.3339 27.6857 74.0416 28.8865L71.8601 37.9253H68.1717L64.4609 22.0746Z" fill="#8F67FF"/>
</svg>
