<svg width="177" height="28" viewBox="0 0 177 28" fill="none" xmlns="http://www.w3.org/2000/svg">
<mask id="mask0_698_451" style="mask-type:luminance" maskUnits="userSpaceOnUse" x="0" y="0" width="177" height="28">
<path d="M176.754 0H0V28H176.754V0Z" fill="white"/>
</mask>
<g mask="url(#mask0_698_451)">
<path d="M48.0182 23.2891C48.4077 23.0357 48.7928 22.7779 49.1693 22.4939L57.0447 16.5864V27.2915C57.4989 27.3352 57.9537 27.3614 58.4162 27.3614C58.923 27.3614 59.4248 27.3352 59.9181 27.2828V16.547C63.0549 18.9022 66.1923 21.2529 69.3297 23.608C69.6496 23.2454 69.9875 22.826 70.3203 22.354C70.5888 21.9695 70.8265 21.5981 71.0301 21.2485C68.3128 19.2081 65.591 17.1719 62.8737 15.1313H72.999C73.0466 14.6507 73.0723 14.1658 73.0723 13.6719C73.0723 13.1783 73.0466 12.6933 72.999 12.2125H62.8737L71.0172 6.1041C70.7705 5.68464 70.4764 5.23022 70.1346 4.76269C69.8578 4.38691 69.5803 4.05046 69.3168 3.74897L59.9226 10.7969V0.0786499C59.4292 0.0262166 58.9269 0 58.4207 0C57.9575 0 57.4989 0.0262166 57.0492 0.069911V10.7619L49.1736 4.85444C48.7971 4.57043 48.412 4.31264 48.0226 4.0592C45.0887 2.16287 42.4275 1.45502 41.5058 1.22782C40.2769 0.926322 38.585 0.633567 36.5469 0.637935C36.5469 1.61232 36.5469 2.59108 36.5469 3.56546C39.7447 3.55672 42.9468 4.40002 45.8201 6.11285C46.0537 6.25264 46.2874 6.39685 46.5167 6.5498C46.8369 6.75953 47.1571 6.96925 47.4644 7.20522L54.1455 12.217H43.8382H43.7646V15.1357H43.8382H54.1455L47.4644 20.1475C47.1528 20.379 46.8325 20.5931 46.5167 20.8029C46.2874 20.9515 46.0537 21.1 45.8201 21.2399C42.9468 22.9526 39.7447 23.7959 36.5469 23.7873V26.7278C36.5685 26.7278 36.5902 26.7322 36.6117 26.7322C40.5668 26.7234 44.5262 25.5743 48.0182 23.2891Z" fill="#1F2630"/>
<path d="M25.0543 23.2891C24.6649 23.0357 24.2798 22.7779 23.9034 22.4939L16.0278 16.5864V27.2958C15.5735 27.3395 15.1192 27.3658 14.6561 27.3658C14.1499 27.3658 13.648 27.3395 13.1546 27.2871V16.547C10.0174 18.9022 6.88023 21.2529 3.743 23.608C3.42279 23.2454 3.08528 22.8259 2.75209 22.354C2.4838 21.9695 2.2458 21.5981 2.04243 21.2485C4.75989 19.2081 7.48171 17.1719 10.1991 15.1313H0.0735617C0.0259629 14.655 0 14.1701 0 13.6763C0 13.1825 0.0259629 12.6976 0.0735617 12.217H10.1991L2.05541 6.1041C2.30205 5.68464 2.59631 5.23021 2.93815 4.76268C3.21509 4.38691 3.49204 4.05046 3.75599 3.74897L13.1502 10.7969V0.0786499C13.648 0.0262166 14.1499 0 14.6561 0C15.1192 0 15.5779 0.0262166 16.0278 0.069911V10.7619L23.9034 4.85444C24.2798 4.57043 24.6649 4.31263 25.0543 4.0592C27.9882 2.16287 30.6494 1.45502 31.5711 1.22782C32.8 0.926322 34.4919 0.633567 36.53 0.637935C36.53 1.61232 36.53 2.59108 36.53 3.56546C33.3365 3.56109 30.1344 4.40002 27.2612 6.11285C27.0275 6.25264 26.7938 6.39685 26.5645 6.5498C26.2443 6.75953 25.9241 6.96925 25.6168 7.20522L18.9314 12.217H29.2387H29.3123V15.1357H29.2387H18.9314L25.6126 20.1475C25.9241 20.379 26.2443 20.5931 26.5602 20.8029C26.7896 20.9515 27.0233 21.1 27.2569 21.2399C30.1302 22.9526 33.3323 23.7959 36.53 23.7873V26.7278C36.5084 26.7278 36.4868 26.7322 36.4651 26.7322C32.5058 26.7234 28.5464 25.5743 25.0543 23.2891Z" fill="#1F2630"/>
<path d="M87.1716 14.6379H82.5547V12.213H94.7701V14.6379H90.1317V27.3792H87.1716V14.6379Z" fill="#1F2630"/>
<path d="M98.907 12.2123L102.403 18.5523L105.965 12.2123H109.34L103.809 21.5235V27.3829H100.85V21.4842L95.4453 12.2166H98.907V12.2123Z" fill="#1F2630"/>
<path d="M115.918 12.2126C119.003 12.2126 122.521 12.654 122.521 17.2332C122.521 21.1045 119.457 22.0439 116 22.0439H113.741V27.379H110.781V12.2126H115.918ZM113.745 14.5547V19.7237H116.19C118.033 19.7237 119.483 19.2649 119.483 17.255C119.483 14.7644 117.6 14.5547 115.987 14.5547H113.745Z" fill="#1F2630"/>
<path d="M150.158 22.4023C149.765 25.4566 147.259 27.6543 143.659 27.6543C139.207 27.6543 136.641 24.5564 136.641 19.7239C136.641 14.9306 139.375 11.9419 143.741 11.9419C147.259 11.9419 149.665 13.9694 150.158 17.1328H147.342C146.783 15.0179 145.373 14.3276 143.72 14.3276C141.443 14.3276 139.705 16.2108 139.705 19.7239C139.705 23.3418 141.443 25.2687 143.616 25.2687C145.395 25.2687 146.866 24.4515 147.342 22.4023H150.158Z" fill="#1F2630"/>
<path d="M156.239 12.2126H159.22L164.832 27.3833H161.622L160.566 24.3073H154.729L153.672 27.3833H150.648L156.239 12.2126ZM155.576 21.856H159.718L157.649 15.8699L155.576 21.856Z" fill="#1F2630"/>
<path d="M169.452 24.9535H176.761V27.3786H166.492V12.2123H169.452V24.9535Z" fill="#1F2630"/>
<path d="M135.284 24.9452H131.065V14.6377H135.284V12.2126H123.859V14.6377H128.079V24.9452H123.859V27.3702H135.284V24.9452Z" fill="#1F2630"/>
</g>
</svg>
