<svg width="106" height="42" viewBox="0 0 106 42" fill="none" xmlns="http://www.w3.org/2000/svg">
<g clip-path="url(#clip0_1037_6210)">
<path fill-rule="evenodd" clip-rule="evenodd" d="M20.6446 6.57452C17.5133 4.46498 14.0173 4.05783 10.393 4.70971C5.58328 5.57532 2.56626 8.50558 1.19313 13.1115C0.0216982 17.0367 0.0281701 21.0228 0.830695 25.0089C1.33119 27.486 2.34298 29.7345 4.13464 31.579C6.28657 33.7836 8.98862 34.754 11.9959 34.9955C12.3325 35.0233 12.5158 35.1387 12.683 35.4176C13.8352 37.3382 15.4182 38.9701 17.3094 40.187C18.8023 41.1552 20.389 41.8648 22.2227 41.8285C23.255 41.8029 24.0403 41.1702 24.1881 40.265C24.3606 39.2327 23.8192 38.318 22.8138 37.961C22.5248 37.8574 22.2195 37.7911 21.9261 37.7003C20.0999 37.1371 18.6944 36.0631 17.7657 34.3404C17.8703 34.2838 17.9297 34.2464 17.9922 34.2282C21.2778 33.0815 23.5074 30.8245 24.7101 27.6271C26.4619 22.9677 26.4619 18.2015 25.2495 13.4289C24.5397 10.6258 23.1018 8.23308 20.6436 6.57345M20.3394 25.586C19.6113 27.9755 18.1777 29.8253 15.6526 30.5178C12.9948 31.2477 10.4427 31.0254 8.26052 29.1553C6.85503 27.9562 6.12154 26.3383 5.77205 24.5814C5.45708 22.9891 5.18094 19.7457 5.22409 19.7361C5.26831 17.4 5.46679 15.0896 6.43111 12.9074C7.91319 9.56997 10.8558 8.42009 14.0831 8.71825C17.6319 9.03991 19.6383 11.173 20.498 14.427C21.4806 18.1406 21.4655 21.8948 20.3383 25.5838L20.3394 25.586ZM83.8759 31.5779C84.5155 31.875 85.0796 32.2416 85.2458 33.0035C85.4723 34.0294 84.8963 34.8972 83.8478 35.0724C82.7357 35.2541 81.7153 34.9602 80.7952 34.3778C80.1092 33.9429 79.4911 33.384 78.8428 32.8774C75.7654 35.2787 72.2792 35.9092 68.4963 34.7444C64.3424 33.4694 62.5529 29.1638 64.557 25.3712C65.3757 23.8216 66.7424 22.894 68.3453 22.2902C70.727 21.3915 73.2111 21.2408 75.7212 21.2782C76.2346 21.2878 76.748 21.2782 77.4103 21.2782C77.3348 20.1134 77.3273 18.9015 77.1515 17.7142C77.0188 16.823 76.2885 16.3399 75.4353 16.1305C73.6145 15.6816 71.8067 15.9082 70.0247 16.3805C69.3128 16.5686 68.6311 16.8689 67.9268 17.0858C67.587 17.1981 67.2213 17.3081 66.874 17.3017C65.5041 17.2729 64.7361 15.7917 65.517 14.5991C65.8471 14.0947 66.3929 13.6715 66.9279 13.3712C68.314 12.5911 69.8597 12.3132 71.4281 12.1689C73.4786 11.9744 75.5227 12.0054 77.5161 12.6199C80.1437 13.4278 81.6614 15.3471 81.7121 18.0786C81.7714 21.197 81.7466 24.3196 81.7681 27.4411C81.7714 27.9199 81.7876 28.3997 81.8437 28.8785C81.9893 30.1652 82.7131 31.0329 83.8759 31.5779ZM77.3122 30.0027C77.3732 29.9525 77.4225 29.8899 77.4567 29.819C77.491 29.7482 77.5094 29.6709 77.5107 29.5924C77.4535 28.6188 77.3251 26.6706 77.3402 26.6674C77.3402 26.1694 77.3122 25.6714 77.351 25.1799C77.3845 24.7321 77.2367 24.5536 76.7858 24.5632C75.9951 24.5729 75.2023 24.5077 74.4149 24.5291C73.0159 24.5632 71.6276 24.6894 70.3322 25.2803C68.9472 25.913 68.2719 27.0864 68.4121 28.5932C68.5599 30.162 69.3064 31.0799 70.8747 31.408C73.2208 31.8996 75.3879 31.4561 77.3122 30.0027ZM58.235 14.0658C59.8077 15.3942 60.6512 17.1596 61.0977 19.1206C61.4418 20.6295 61.6586 22.1609 61.4569 23.7073C61.3156 24.7663 60.7105 25.2493 59.6308 25.2857C59.1799 25.3049 58.7333 25.2963 58.2824 25.2963H46.8648C46.648 28.311 48.8625 30.9795 51.7943 31.3578C53.8448 31.6271 55.7691 31.2734 57.6298 30.4345C57.9887 30.2679 58.3584 30.1254 58.7365 30.0081C59.5369 29.7772 60.2607 30.0241 60.7019 30.6471C61.1452 31.2734 61.1894 32.1593 60.6803 32.7513C60.2823 33.2055 59.7947 33.6404 59.2586 33.9044C56.8187 35.112 54.2072 35.4946 51.5203 35.1879C50.3399 35.0614 49.1796 34.7923 48.0653 34.3864C45.4334 33.3968 43.7194 31.4454 42.9255 28.7844C41.8673 25.2076 41.8382 21.5977 43.2189 18.0957C44.6826 14.3736 47.5174 12.3752 51.53 12.0963C53.9991 11.921 56.2944 12.4222 58.235 14.0658ZM46.8529 21.8275H57.221C57.1703 21.3295 57.1488 20.8571 57.0765 20.3869C56.8715 19.0532 56.5371 17.7634 55.5329 16.7706C53.93 15.1794 50.6002 15.252 48.8711 16.886C47.458 18.224 47.0352 19.952 46.8529 21.8275ZM105.748 17.5283C105.896 18.3511 105.956 19.1975 105.959 20.0332C105.984 24.2897 105.971 28.5419 105.969 32.7973C105.969 34.6236 104.157 35.6784 102.539 34.7957C101.673 34.3201 101.461 33.524 101.461 32.6156V20.419C101.461 20.1305 101.446 19.8366 101.43 19.5459C101.269 17.1179 99.8012 15.7938 97.3742 15.8783C95.0929 15.9595 93.1998 16.8358 91.7296 18.5713C91.5311 18.8064 91.3898 19.1719 91.3898 19.4796C91.3736 23.8355 91.3898 28.1945 91.3898 32.5536C91.3898 34.0123 90.8375 34.7828 89.6543 35.0276C88.1484 35.3428 86.977 34.4227 86.9263 32.8913C86.9231 32.716 86.9231 32.5472 86.9231 32.3751C86.9231 28.7022 86.908 25.0313 86.9296 21.3615C86.9457 19.4796 86.5801 17.6982 85.7678 15.9905C85.5122 15.4519 85.3234 14.8224 85.3148 14.2304C85.3083 13.4417 85.7862 12.8625 86.5423 12.5494C87.3837 12.2106 88.2337 12.2491 88.8442 12.9095C89.4051 13.5144 89.7772 14.2881 90.2249 14.9881C90.3112 15.127 90.3565 15.2926 90.3813 15.3514C91.3262 14.6675 92.1988 13.8649 93.2074 13.3199C95.9784 11.8238 98.92 11.7297 101.871 12.684C104.18 13.4385 105.333 15.2328 105.748 17.5283ZM39.3605 31.7639C40.0627 31.7959 40.5697 32.1593 40.7962 32.825C41.0303 33.5143 40.9667 34.1822 40.4532 34.7486C39.8988 35.3471 39.1653 35.5875 38.3908 35.719C36.7965 35.9819 35.2282 35.891 33.7515 35.1804C31.9275 34.3041 31.1519 32.7128 30.8628 30.8277C30.7735 30.1843 30.7313 29.5354 30.7366 28.886C30.7269 21.493 30.7312 14.1021 30.7334 6.71131C30.7334 4.99076 32.195 4.00012 33.8205 4.60498C34.7244 4.93626 35.1839 5.68219 35.1872 6.85344C35.1904 10.1321 35.1904 13.4075 35.1904 16.6798V18.0231C35.1904 21.571 35.1839 25.119 35.1969 28.6669C35.1969 29.0773 35.2292 29.493 35.3004 29.8937C35.5809 31.4379 36.5603 32.0984 38.1319 31.8494C38.5353 31.7831 38.9517 31.7489 39.3605 31.7639Z" fill="#878787"/>
</g>
<defs>
<clipPath id="clip0_1037_6210">
<rect width="106" height="38" fill="white" transform="translate(0 4)"/>
</clipPath>
</defs>
</svg>
