<svg width="32" height="42" viewBox="0 0 32 42" fill="none" xmlns="http://www.w3.org/2000/svg">
<g clip-path="url(#clip0_1037_6213)">
<path d="M31.5703 21.3079H21.5993C21.1696 21.3079 20.9548 21.8262 21.2581 22.1297L28.3098 29.1843L25.757 31.7382L18.7179 24.6961C18.4146 24.3927 17.8964 24.6077 17.8964 25.0375V35H14.2821V25.0375C14.2821 24.6077 13.7639 24.3927 13.4606 24.6961L6.3836 31.7508L3.83081 29.197L10.8826 22.1423C11.1858 21.8389 10.971 21.3205 10.5414 21.3205H0.570312V17.7047H10.5414C10.971 17.7047 11.1858 17.1864 10.8826 16.883L3.83081 9.81566L6.3836 7.26183L13.4227 14.3038C13.726 14.6073 14.2442 14.3923 14.2442 13.9625V4H17.8585V13.9625C17.8585 14.3923 18.3767 14.6073 18.68 14.3038L25.7191 7.26183L28.3098 9.81566L21.2581 16.8703C20.9548 17.1738 21.1696 17.6921 21.5993 17.6921H31.5703V21.3079Z" fill="#878787"/>
</g>
<defs>
<clipPath id="clip0_1037_6213">
<rect width="31" height="31" fill="white" transform="translate(0.570312 4)"/>
</clipPath>
</defs>
</svg>
