<svg width="177" height="33" viewBox="0 0 177 33" fill="none" xmlns="http://www.w3.org/2000/svg">
<path d="M49.9656 12.575H31.0078V19.0983H49.9656V12.575Z" fill="#F9B122"/>
<path d="M104.503 6.70068H79.2969V12.8326H104.503V6.70068Z" fill="#F9B122"/>
<path d="M104.503 18.5564H79.2969V24.6883H104.503V18.5564Z" fill="#F9B122"/>
<path d="M123.727 24.976H151.519L147.037 31.0945H123.727V24.976Z" fill="#F9B122"/>
<path d="M123.727 7.07205H151.508L147.037 0.953491H123.727V7.07205Z" fill="#F9B122"/>
<path d="M158.05 16.0608L155.797 19.1184H122.914V13.0032H155.822L158.05 16.0608Z" fill="#F9B122"/>
<path d="M49.5883 31.1113H56.4921V11.8457L64.81 21.7277L72.7396 11.8457V31.1113H79.6504V0.953411H73.6511L64.6401 12.1635L55.6014 0.953411H49.5883V31.1113ZM8.16883 13.0065C8.43223 10.3704 10.5949 6.13529 16.0604 6.13529C21.5259 6.13529 23.4771 10.0091 23.5881 12.9898L8.16883 13.0065ZM31.5073 18.6936C31.6949 16.9464 31.6949 15.1852 31.5073 13.4381L31.445 12.9998C30.1973 4.03109 23.3766 0 16.2891 0C7.08057 0 0 6.17543 0 16.305C0 26.0465 6.94887 32.1818 16.3203 32.1818C23.945 32.1818 28.8526 26.9531 30.0205 23.5175H21.772C20.306 25.2269 18.1537 26.0432 15.842 26.0432C11.1875 26.0432 8.41143 22.6042 8.13417 19.0983H31.4554L31.5073 18.6936ZM124.075 31.1113H104.129V0.953411H124.075V7.08535H111.036V13.0032H123.288V19.1184H111.036V24.976H124.075V31.1113ZM146.893 0.970138H155.267L161.852 10.9458L168.437 0.953411H176.754L166.011 16.0575L176.754 31.0912H168.412L161.852 21.3598L155.294 31.1113H146.904L157.693 16.0575L147.226 1.41172" fill="black"/>
</svg>
