<svg width="95" height="42" viewBox="0 0 95 42" fill="none" xmlns="http://www.w3.org/2000/svg">
<mask id="mask0_1037_6218" style="mask-type:luminance" maskUnits="userSpaceOnUse" x="0" y="4" width="95" height="31">
<path d="M94.7847 4H0.710938V35H94.7847V4Z" fill="white"/>
</mask>
<g mask="url(#mask0_1037_6218)">
<path d="M50.5615 20.9217C50.2433 17.939 47.7578 15.7318 44.5564 15.7318C41.4345 15.7318 38.8694 18.3367 38.5512 20.9217H50.5615ZM53.9021 29.8697C54.0413 29.9493 54.1208 30.1083 54.1407 30.2475C54.1606 30.4066 54.1208 30.5657 54.0214 30.685C51.9733 33.27 49.09 34.9204 44.9143 34.9204C38.0939 34.9204 33.2222 30.0686 33.2222 23.1487C33.2222 16.4079 38.1336 11.3771 44.6359 11.3771C51.1978 11.3771 55.811 16.4675 55.811 23.1487C55.811 23.3675 55.811 23.8049 55.7911 24.1827C55.7911 24.5009 55.5127 24.7594 55.1946 24.7594H38.4916C38.7302 28.0205 41.6134 30.4464 44.954 30.4464C47.4197 30.4464 48.7918 29.5516 49.965 28.0403C50.1638 27.8017 50.5018 27.7421 50.7603 27.9011C51.5358 28.438 53.0868 29.3328 53.9021 29.8697ZM69.0342 29.7106C66.5487 29.7106 65.4152 28.5573 65.4152 25.9922V16.567H68.0002C68.3184 16.567 68.5968 16.3085 68.5968 15.9704V12.4707C68.5968 12.1526 68.3383 11.8742 68.0002 11.8742H65.4152V6.26676C65.4152 6.10769 65.3556 5.9685 65.2363 5.84919C65.117 5.72988 64.9778 5.67023 64.8187 5.67023H60.8617C60.5435 5.67023 60.2651 5.92873 60.2651 6.26676V11.8742H57.7995C57.4813 11.8742 57.2029 12.1327 57.2029 12.4707V15.9704C57.2029 16.1295 57.2626 16.2687 57.3819 16.388C57.5012 16.5073 57.6404 16.567 57.7995 16.567H60.2651V26.9865C60.2651 31.8582 63.0888 34.7613 67.7616 34.7613C68.5769 34.7613 69.1535 34.6619 69.7898 34.4432C70.1875 34.2841 70.4659 33.9063 70.4659 33.4688L70.446 30.2276C70.446 30.0487 70.3665 29.8896 70.2472 29.7902C70.1279 29.6908 69.9489 29.6311 69.7898 29.651C69.5115 29.6709 69.2728 29.6908 69.0342 29.7106ZM83.1125 29.7106C80.6269 29.7106 79.4935 28.5573 79.4935 25.9922V16.567H82.0785C82.2376 16.567 82.3768 16.5073 82.4961 16.388C82.6154 16.2687 82.675 16.1295 82.675 15.9704V12.4707C82.675 12.1526 82.4165 11.8742 82.0785 11.8742H79.4935V6.26676C79.4935 5.94861 79.235 5.67023 78.897 5.67023H74.9399C74.7809 5.67023 74.6417 5.72988 74.5224 5.84919C74.4031 5.9685 74.3434 6.10769 74.3434 6.26676V11.8742H71.8777C71.5596 11.8742 71.2812 12.1327 71.2812 12.4707V15.9704C71.2812 16.1295 71.3408 16.2687 71.4601 16.388C71.5795 16.5073 71.7186 16.567 71.8777 16.567H74.3434V26.9865C74.3434 31.8582 77.167 34.7613 81.8399 34.7613C82.6551 34.7613 83.2318 34.6619 83.8681 34.4432C84.2658 34.2841 84.5442 33.9063 84.5442 33.4688L84.5243 30.2276C84.5243 30.0487 84.4447 29.8896 84.3254 29.7902C84.2061 29.6709 84.0272 29.6311 83.8681 29.651C83.5897 29.6709 83.3511 29.6908 83.1125 29.7106ZM15.4056 18.8139V22.1744C15.4056 22.3335 15.4653 22.4727 15.5846 22.592C15.7039 22.7113 15.8431 22.7709 16.0022 22.7709H25.149C24.473 27.0859 20.9136 30.168 16.1811 30.168C10.4146 30.168 5.92069 25.3758 5.92069 19.5298C5.92069 13.624 10.4544 8.87164 16.1413 8.87164C19.3229 8.87164 22.0272 10.1641 23.8168 12.4906C23.9957 12.7292 24.3338 12.7889 24.5923 12.6298L28.0323 10.5419C28.1516 10.4624 28.251 10.3431 28.2709 10.184C28.2908 10.0448 28.2709 9.88575 28.1715 9.76644C25.6462 6.28665 21.3113 3.98004 16.1811 3.98004C7.67053 3.98004 0.710938 10.9595 0.710938 19.5099C0.710938 28.0602 7.55122 34.9999 16.1413 34.9999C24.6519 34.9999 30.4582 28.5375 30.4582 20.2058V18.8736C30.4582 18.7145 30.3986 18.5753 30.2793 18.456C30.1599 18.3367 30.0208 18.277 29.8617 18.277H15.9425C15.6442 18.2969 15.4056 18.5355 15.4056 18.8139Z" fill="#878787"/>
</g>
<mask id="mask1_1037_6218" style="mask-type:luminance" maskUnits="userSpaceOnUse" x="0" y="4" width="95" height="31">
<path d="M94.7847 4H0.710938V35H94.7847V4Z" fill="white"/>
</mask>
<g mask="url(#mask1_1037_6218)">
<path d="M91.6616 28.3585C90.3493 28.3585 89.534 28.5574 89.0568 29.134C88.6591 29.6112 88.5 30.3867 88.5 31.5202C88.5 32.7132 88.6591 33.4887 89.1164 33.9858C89.5937 34.483 90.389 34.6818 91.6418 34.6818C93.0734 34.6818 93.9086 34.4432 94.3461 33.7671C94.6642 33.27 94.7835 32.574 94.7835 31.54C94.7835 30.3271 94.6046 29.5516 94.1472 29.0545C93.6899 28.5375 92.8945 28.3585 91.6616 28.3585Z" fill="#878787"/>
</g>
</svg>
