<svg width="79" height="42" viewBox="0 0 79 42" fill="none" xmlns="http://www.w3.org/2000/svg">
<path fill-rule="evenodd" clip-rule="evenodd" d="M78.4297 32.9333V35H68.2323V32.9333H78.4297ZM53.956 32.9333V35H43.7586V32.9333H53.956ZM61.9122 32.9333L61.0918 35L60.2823 32.9333H61.9122ZM39.0678 32.9333C37.6047 34.2167 35.675 35 33.5205 35H17.2455V32.9333H39.0678ZM15.206 32.9333V35H0.929688V32.9333H15.206ZM53.956 28.8V30.8667H43.7586V28.8H53.956ZM63.5067 28.8L62.7129 30.8667H59.4839L58.6841 28.8H63.5067ZM41.1073 28.8C40.9232 29.5348 40.6291 30.2286 40.2507 30.8667H17.2455V28.8H41.1073ZM15.206 28.8V30.8667H0.929688V28.8H15.206ZM78.4297 28.8V30.8667H68.2323V28.8H78.4297ZM74.3507 24.6667V26.7333H68.2323V24.6667H74.3507ZM53.956 24.6667V26.7333H47.8376V24.6667H53.956ZM65.1067 24.6667L64.3054 26.7333H57.8834L57.0758 24.6667H65.1067ZM40.8218 24.6667C41.0051 25.3256 41.1073 26.0177 41.1073 26.7333H33.5613V24.6667H40.8218ZM27.4428 24.6667V26.7333H21.3244V24.6667H27.4428ZM11.1271 24.6667V26.7333H5.00864V24.6667H11.1271ZM74.3507 20.5333V22.6H68.2323V20.5333H74.3507ZM53.956 20.5333V22.6H47.8376V20.5333H53.956ZM66.7048 20.5333L65.9074 22.6H56.2606L55.4694 20.5333H66.7048ZM38.3132 20.5333C39.0166 21.1167 39.6223 21.8158 40.0876 22.6H21.3244V20.5333H38.3132ZM11.1271 20.5333V22.6H5.00864V20.5333H11.1271ZM60.5228 16.4L61.0942 18.0704L61.665 16.4H74.3507V18.4667H68.2323V16.5676L67.5389 18.4667H54.629L53.956 16.5674V18.4667H47.8376V16.4H60.5228ZM11.1271 16.4V18.4667H5.00864V16.4H11.1271ZM40.0876 16.4C39.6223 17.1842 39.0166 17.8831 38.3132 18.4667H21.3244V16.4H40.0876ZM74.3507 12.2667V14.3333H62.3726L63.0946 12.2667H74.3507ZM59.1005 12.2667L59.8225 14.3333H47.8376V12.2667H59.1005ZM41.1073 12.2667C41.1073 12.9821 41.0051 13.6743 40.8218 14.3333H33.5613V12.2667H41.1073ZM27.4428 12.2667V14.3333H21.3244V12.2667H27.4428ZM11.1271 12.2667V14.3333H5.00864V12.2667H11.1271ZM57.6883 8.13333L58.3972 10.2H43.7588L43.7586 8.13333H57.6883ZM78.4297 8.13333V10.2H63.7836L64.5203 8.13333H78.4297ZM40.2507 8.13333C40.6291 8.77137 40.9232 9.46521 41.1073 10.2H17.2455V8.13333H40.2507ZM15.206 8.13333V10.2H0.929688V8.13333H15.206ZM56.2562 4L56.9786 6.06667H43.7588L43.7586 4H56.2562ZM78.4297 4V6.06667H65.2264L65.9317 4H78.4297ZM33.5205 4C35.6593 4 37.6049 4.78327 39.0678 6.06667H17.2455V4H33.5205ZM15.206 4V6.06667H0.929688V4H15.206Z" fill="#878787"/>
</svg>
