<svg width="83" height="42" viewBox="0 0 83 42" fill="none" xmlns="http://www.w3.org/2000/svg">
<g clip-path="url(#clip0_1037_6242)">
<path d="M1.98438 26.9017C3.70943 29.8687 6.32922 32.1658 9.52389 33.4101C7.47929 32.1657 5.5625 30.6982 3.83725 28.9117C3.16629 28.3055 2.59121 27.6355 1.98438 26.9017Z" fill="#878787"/>
<path d="M0.382812 22.7862C0.542484 23.4242 0.734214 24.0305 0.925944 24.6047C1.91624 26.0085 2.97055 27.2849 4.21638 28.5289C6.58053 30.826 9.16836 32.7084 11.9478 34.1442C12.5867 34.2716 13.2577 34.3675 13.8646 34.4313C10.5101 32.9317 7.3794 30.826 4.66374 28.1142C2.97065 26.487 1.59679 24.6686 0.382812 22.7862Z" fill="#878787"/>
<path d="M0 19.8191C0 20.2977 0.06391 20.776 0.0959687 21.2229C1.40571 23.5518 3.06706 25.7534 5.04775 27.7313C8.11481 30.7941 11.6611 33.0274 15.4628 34.463C15.942 34.463 16.4213 34.4312 16.9004 34.3674C12.7154 32.9954 8.78586 30.6345 5.43131 27.2847C3.16282 25.0514 1.40571 22.499 0 19.8191Z" fill="#878787"/>
<path d="M0.158469 17.4581C0.0945588 17.841 0.0625 18.2238 0.0625 18.6067C1.4043 21.6055 3.35314 24.413 5.84511 26.9017C9.42324 30.4431 13.6403 32.8359 18.1449 34.144C18.5283 34.0802 18.9117 33.9844 19.2952 33.8567C14.5349 32.7083 9.99833 30.2196 6.22847 26.4869C3.54487 23.807 1.53212 20.6804 0.158469 17.4581Z" fill="#878787"/>
<path d="M0.575144 15.3525C0.479382 15.6717 0.383621 16.0226 0.351562 16.3415C1.69336 19.8829 3.80208 23.2329 6.6773 26.1043C10.5748 29.9647 15.3032 32.453 20.3508 33.5059C20.6383 33.4103 20.9578 33.2826 21.3092 33.1232C16.0699 32.1659 11.0862 29.6776 7.06056 25.7214C4.02566 22.6585 1.88509 19.1811 0.575144 15.3525Z" fill="#878787"/>
<path d="M1.24263 13.5657C1.11481 13.853 1.01905 14.1401 0.859375 14.4273C2.10521 18.4471 4.27763 22.1162 7.44065 25.2747C11.6256 29.454 16.8012 31.8788 22.1685 32.7084C22.456 32.5489 22.6796 32.3574 22.967 32.2298C17.4721 31.56 12.1048 29.1031 7.85576 24.8918C4.59718 21.6056 2.3928 17.7452 1.24263 13.5657Z" fill="#878787"/>
<path d="M6.42492 21.5099C5.56245 21.3185 4.89139 20.5528 4.89139 19.5958C4.89139 19.4999 4.89139 19.4043 4.89139 19.3087C3.54959 17.0116 2.59105 14.5229 2.01606 12.0025C1.88824 12.2258 1.72857 12.4811 1.63281 12.7682C2.68702 17.0753 4.89129 21.1269 8.24584 24.4769C12.5907 28.784 18.0856 31.2088 23.7085 31.751C23.9321 31.5598 24.1875 31.4001 24.4113 31.2088C18.6608 30.8259 13.0699 28.4331 8.693 24.0941C7.86238 23.2647 7.09587 22.4032 6.42492 21.5099Z" fill="#878787"/>
<path d="M5.55995 18.1599C4.28185 15.7672 3.35547 13.2467 2.94016 10.5987C2.78049 10.854 2.65267 11.0452 2.46094 11.2687C2.94016 13.8529 3.83479 16.3413 5.17659 18.6385C5.27246 18.447 5.43213 18.3194 5.55995 18.1599Z" fill="#878787"/>
<path d="M7.73144 21.3185C7.57156 21.4143 7.34798 21.51 7.15625 21.51C7.73144 22.2757 8.40229 22.9776 9.07324 23.7112C13.5459 28.1141 19.2325 30.4432 25.047 30.6983C25.2385 30.507 25.4303 30.3155 25.6538 30.1241C19.7757 30.0284 13.9612 27.7313 9.5204 23.2647C8.88151 22.6585 8.30653 21.9885 7.73144 21.3185Z" fill="#878787"/>
<path d="M23.3516 29.3903C24.2781 29.486 25.2363 29.5498 26.1947 29.5498C26.3225 29.3903 26.4822 29.1989 26.61 29.0711C25.7476 29.2944 24.789 29.3903 23.8305 29.3903C23.7031 29.3903 23.5112 29.3903 23.3516 29.3903Z" fill="#878787"/>
<path d="M10.3197 22.4673C9.71251 21.8293 9.07362 21.1591 8.53049 20.4891C8.43473 20.6805 8.33876 20.84 8.21094 20.9676C8.72222 21.6378 9.26545 22.2758 9.90434 22.882C13.0033 25.9447 16.7411 27.9547 20.7345 28.9118C19.5205 28.5289 18.4663 28.0185 17.5078 27.2848C14.8881 26.1999 12.4282 24.5729 10.3197 22.4673Z" fill="#878787"/>
<path d="M6.68066 17.7452C5.17899 15.161 4.28445 12.2896 3.93295 9.41827C3.74142 9.60974 3.61361 9.80121 3.42188 9.99247C3.80534 12.7683 4.69976 15.3843 6.04156 17.8728C6.23319 17.7772 6.42502 17.7452 6.68066 17.7452Z" fill="#878787"/>
<path d="M15.7796 25.6257C15.5879 25.3704 15.3962 25.1471 15.2044 24.86C13.7669 23.9987 12.3931 22.882 11.1471 21.6377C7.37744 17.9686 5.33263 13.2469 4.98123 8.36554C4.78971 8.55701 4.59798 8.68465 4.40625 8.87592C4.75765 12.0026 5.7162 15.0016 7.34549 17.7773C8.14426 18.0324 8.78326 18.7343 8.78326 19.5959C8.78326 19.6915 8.78326 19.7871 8.78326 19.883C9.35824 20.6486 9.99723 21.3506 10.7 22.0842C12.3293 23.7113 14.1503 25.0515 16.1312 26.0404C16.1312 26.0084 16.1312 26.0084 16.1312 26.0084C16.0352 25.9128 15.9393 25.7533 15.7796 25.6257Z" fill="#878787"/>
<path d="M11.9129 20.84C8.20693 17.1711 6.22624 12.3856 6.09842 7.50421C5.9069 7.63186 5.71517 7.79131 5.52344 7.91896C5.74702 12.8002 7.75977 17.5858 11.5296 21.2547C12.4882 22.2119 13.5424 23.0733 14.6285 23.8071C14.5007 23.52 14.341 23.1691 14.2132 22.7862C13.4464 22.2119 12.6797 21.5418 11.9129 20.84Z" fill="#878787"/>
<path d="M19.875 24.5091C20.9612 25.3704 22.3989 25.9446 23.9324 25.9446C24.763 25.9446 25.5297 25.8172 26.2005 25.5619C24.0282 25.5619 21.9197 25.2427 19.875 24.5091Z" fill="#878787"/>
<path d="M12.7191 20.0105C9.01319 16.4052 7.19217 11.5559 7.19217 6.73834C7.00044 6.83397 6.80871 6.96162 6.61719 7.05725C6.71295 11.9387 8.59788 16.788 12.3357 20.4571C12.8788 20.9674 13.39 21.4461 13.9652 21.9247C13.8692 21.6056 13.8374 21.3183 13.7734 21.0313C13.4538 20.6804 13.0705 20.3933 12.7191 20.0105Z" fill="#878787"/>
<path d="M13.6717 19.4044C13.6398 19.3724 13.5759 19.3088 13.5441 19.3088C9.90203 15.6717 8.14492 10.8541 8.33644 6.06842C8.14492 6.16426 7.95319 6.2917 7.76146 6.38753C7.6657 11.173 9.45466 16.0544 13.1606 19.6277C13.2884 19.8191 13.4802 20.0106 13.6717 20.2019C13.6717 19.9148 13.6717 19.6277 13.6717 19.4044Z" fill="#878787"/>
<path d="M18.3672 22.6585C18.5269 22.9776 18.6547 23.2647 18.8462 23.52C21.5938 24.7005 24.5649 25.1471 27.4401 24.9555C27.7597 24.764 28.0473 24.509 28.3348 24.2857C24.9803 24.7005 21.4979 24.1899 18.3672 22.6585Z" fill="#878787"/>
<path d="M17.9844 21.159C18.0483 21.4461 18.0801 21.7014 18.144 21.9248C21.4986 23.6477 25.3324 24.2219 28.9744 23.6157C29.0063 23.5518 29.0063 23.5518 29.0702 23.52C29.198 23.3286 29.3577 23.1371 29.4536 22.8819C25.6199 23.7112 21.4986 23.137 17.9844 21.159Z" fill="#878787"/>
<path d="M13.8311 17.9368C10.6684 14.4274 9.19873 9.92879 9.55013 5.52594C9.3584 5.62178 9.10276 5.71741 8.91124 5.81325C8.68745 10.4073 10.2849 15.0972 13.7351 18.7025C13.7351 18.6068 13.7351 18.511 13.7672 18.4154C13.7672 18.2557 13.8311 18.0644 13.8311 17.9368Z" fill="#878787"/>
<path d="M10.7667 5.14325C10.511 5.20707 10.3195 5.23888 10.1278 5.33472C9.74431 9.54599 11.0542 13.8532 13.9615 17.2668C14.0573 17.0755 14.1212 16.8202 14.217 16.597C11.4695 13.3425 10.3195 9.16295 10.7667 5.14325Z" fill="#878787"/>
<path d="M19.2324 20.5528C18.8171 20.2977 18.3378 20.0743 17.8906 19.787C17.8906 20.0105 17.8906 20.2657 17.8906 20.4889C21.5327 22.5947 25.7497 23.2328 29.7431 22.2756C29.8389 22.0842 29.8709 21.8927 29.9349 21.7014C29.9349 21.6376 29.9349 21.6376 29.9349 21.6376C26.8039 22.4671 23.4493 22.2756 20.4463 21.0634H19.2323L19.2324 20.5528Z" fill="#878787"/>
<path d="M17.8906 19.1811C18.3378 19.4682 18.817 19.6915 19.2324 19.9148V19.3087C18.8171 19.0852 18.3699 18.7981 17.9545 18.511C17.8906 18.7342 17.8906 18.9896 17.8906 19.1811Z" fill="#878787"/>
<path d="M22.2031 21.0634C24.759 21.7332 27.4745 21.7332 30.0303 21.0314C30.0303 20.8399 30.0303 20.6487 30.0622 20.3934C29.9985 20.4572 29.8707 20.4572 29.7747 20.489C29.7747 20.6805 29.7428 20.8719 29.7428 21.0634H22.2031Z" fill="#878787"/>
<path d="M11.9183 4.85602C11.7268 4.85602 11.5351 4.91984 11.3434 4.95165C10.8641 8.84402 11.8544 12.8 14.4104 16.0225C14.5062 15.8311 14.6021 15.5758 14.6979 15.3843C12.3338 12.3216 11.4393 8.49309 11.9183 4.85602Z" fill="#878787"/>
<path d="M15.3693 14.3316C13.2926 11.4603 12.5897 7.98285 13.1009 4.63287C12.9093 4.66468 12.7176 4.66468 12.494 4.7285C11.9509 8.20613 12.8134 11.907 14.9858 14.874C15.1136 14.7145 15.2094 14.523 15.3693 14.3316Z" fill="#878787"/>
<path d="M30.0629 19.4999C30.0629 19.4681 30.0629 19.3723 30.0629 19.2767C29.9353 19.3087 29.8394 19.3723 29.6797 19.4043C29.6797 19.532 29.7436 19.7232 29.7436 19.9147C29.8394 19.8829 29.9992 19.8829 30.0629 19.8191C30.0629 19.6914 30.0629 19.5958 30.0629 19.4999Z" fill="#878787"/>
<path d="M18.0469 17.8728C18.4301 18.1599 18.8454 18.447 19.229 18.7024V18.0644H19.3887C18.9415 17.8411 18.5581 17.5857 18.1747 17.2986C18.1426 17.4899 18.0787 17.6814 18.0469 17.8728Z" fill="#878787"/>
<path d="M30.0594 18.7024C30.0594 18.511 30.0275 18.3195 30.0275 18.1282C29.8358 18.16 29.6761 18.2239 29.4844 18.2557C29.5483 18.4471 29.5803 18.6386 29.5803 18.8301C29.74 18.7981 29.9317 18.7341 30.0594 18.7024Z" fill="#878787"/>
<path d="M14.3147 4.53693C14.1229 4.53693 13.8673 4.56894 13.6756 4.56894C13.1006 7.79127 13.7715 11.1412 15.6883 13.9167C15.848 13.7255 15.944 13.5658 16.0718 13.4384C14.3147 10.7902 13.7394 7.53598 14.3147 4.53693Z" fill="#878787"/>
<path d="M22.0729 18.0645C20.859 17.6497 19.709 17.0116 18.6547 16.2139C18.5587 16.3416 18.4629 16.533 18.3672 16.7245C19.0379 17.2667 19.7729 17.6815 20.5394 18.0645H22.0729Z" fill="#878787"/>
<path d="M15.4618 4.53693C15.3021 4.53693 15.1743 4.53693 15.0785 4.53693C14.9825 4.53693 14.9186 4.53693 14.8868 4.53693C14.2479 7.40823 14.8229 10.4711 16.5161 13.0554C16.6439 12.896 16.8036 12.7683 16.9314 12.6727C15.366 10.216 14.8868 7.24878 15.4618 4.53693Z" fill="#878787"/>
<path d="M29.938 17.5539C29.938 17.3626 29.8741 17.1073 29.8741 16.9158C29.6503 17.0117 29.4588 17.0755 29.2031 17.1711C29.2989 17.3626 29.3628 17.5539 29.3949 17.7453C29.5866 17.6497 29.7781 17.5859 29.938 17.5539Z" fill="#878787"/>
<path d="M25.3348 18.0644C25.3348 17.9367 25.3348 17.7452 25.3348 17.5857C23.2262 17.4581 21.1496 16.6923 19.3925 15.3524C19.3286 15.3842 19.2967 15.448 19.2328 15.4801C19.1368 15.5757 19.0411 15.6715 18.9453 15.7351C20.5746 17.0115 22.3956 17.7772 24.3123 18.0643H25.3348V18.0644Z" fill="#878787"/>
<path d="M16.6114 4.56894C16.4199 4.56894 16.2281 4.56894 16.0364 4.53693C15.4614 7.15315 15.8767 9.99254 17.4103 12.3217C17.5699 12.2258 17.6978 12.1302 17.8895 12.0346C16.4517 9.80128 16.0364 7.12113 16.6114 4.56894Z" fill="#878787"/>
<path d="M29.7467 16.4053C29.7467 16.2138 29.6828 16.0226 29.6507 15.8311C29.3632 15.9267 29.1078 16.0226 28.8203 16.0544C28.9161 16.2459 28.98 16.4371 29.0757 16.6286C29.2992 16.533 29.4911 16.5009 29.7467 16.4053Z" fill="#878787"/>
<path d="M24.954 16.4053C23.3568 16.2459 21.8871 15.6716 20.5451 14.7144C20.2897 14.81 20.098 14.9059 19.9062 15.0015C21.5037 16.2138 23.3247 16.8839 25.1778 17.0115C25.1458 16.8202 25.05 16.5968 24.954 16.4053Z" fill="#878787"/>
<path d="M29.455 15.2568C29.3911 15.0971 29.359 14.9059 29.295 14.7144C28.9756 14.81 28.6242 14.9697 28.3047 15.0653C28.4007 15.193 28.4964 15.3842 28.5922 15.5757C28.8797 15.4801 29.1674 15.3842 29.455 15.2568Z" fill="#878787"/>
<path d="M23.5104 14.9698C23.2547 14.8739 22.9672 14.7783 22.7437 14.6824C22.2643 14.523 21.7212 14.523 21.2422 14.5868C22.2644 15.193 23.4146 15.5758 24.5008 15.7673C24.2133 15.4481 23.8937 15.161 23.5104 14.9698Z" fill="#878787"/>
<path d="M17.761 4.76045C17.5693 4.72843 17.3775 4.66461 17.186 4.66461C16.6108 7.05735 16.9943 9.64166 18.4317 11.8111C18.5595 11.7155 18.7514 11.6199 18.9431 11.556C17.6013 9.54603 17.186 7.05735 17.761 4.76045Z" fill="#878787"/>
<path d="M29.1024 14.2041C29.0065 14.0126 28.9746 13.8212 28.8786 13.6297C28.4954 13.8212 28.0482 13.9488 27.6328 14.0126C27.7606 14.2041 27.8564 14.3954 28.0161 14.523C28.3995 14.4274 28.7189 14.3315 29.1024 14.2041Z" fill="#878787"/>
<path d="M18.8465 5.01547C18.655 4.95165 18.4633 4.91984 18.2715 4.85602C17.7605 7.05729 18.1437 9.45033 19.5176 11.4283C19.7093 11.3327 19.9648 11.3327 20.1566 11.2689C18.7508 9.45033 18.3354 7.12111 18.8465 5.01547Z" fill="#878787"/>
<path d="M21.595 11.1412C19.9977 9.54597 19.4863 7.34471 19.9656 5.3346C19.7741 5.30258 19.5824 5.20695 19.3906 5.14313C18.9114 7.21696 19.3906 9.45024 20.8284 11.1729C21.0519 11.1729 21.3073 11.1412 21.595 11.1412Z" fill="#878787"/>
<path d="M27.2539 13.5341C27.7332 13.4702 28.2124 13.3426 28.6277 13.1511C28.5957 12.9599 28.4999 12.7684 28.4041 12.6089C27.861 12.8002 27.2859 12.9599 26.7109 12.9917C26.9025 13.1831 27.0942 13.3426 27.2539 13.5341Z" fill="#878787"/>
<path d="M22.4563 10.4073C21.1464 9.16291 20.731 7.4082 21.0506 5.78123C20.8588 5.6856 20.6671 5.58976 20.4756 5.52594C20.0603 7.34469 20.5713 9.41831 22.0089 10.8541C22.1688 10.9497 22.2645 11.0774 22.3924 11.173C22.9673 11.2368 23.5423 11.3645 24.1176 11.5239C23.5105 11.2689 22.9355 10.8858 22.4563 10.4073Z" fill="#878787"/>
<path d="M28.116 12.1303C28.02 11.9388 27.9243 11.7474 27.8283 11.6199C26.774 12.0027 25.6559 12.0027 24.6016 11.7156C25.1447 11.907 25.6239 12.1942 26.1032 12.5131C26.774 12.513 27.4769 12.3856 28.116 12.1303Z" fill="#878787"/>
<path d="M27.5409 11.1413C27.3812 10.9498 27.2854 10.7904 27.1576 10.5989C25.8158 10.9818 24.3141 10.6627 23.2599 9.60997C22.3656 8.68474 21.9822 7.44051 22.11 6.25999C21.9182 6.16436 21.7265 6.06852 21.535 6.0047C21.3112 7.40839 21.7265 8.93983 22.8447 10.0247C24.0906 11.2689 25.9116 11.6517 27.5409 11.1413Z" fill="#878787"/>
<path d="M26.769 10.1202C26.6093 9.99251 26.4815 9.80125 26.3218 9.60978C25.5231 9.70541 24.6925 9.41831 24.0855 8.78019C23.5424 8.26981 23.2548 7.59967 23.223 6.92984C23.0313 6.834 22.8396 6.67455 22.648 6.57892C22.5841 7.50414 22.9355 8.49309 23.6383 9.22684C24.5008 10.0883 25.6508 10.3754 26.769 10.1202Z" fill="#878787"/>
<path d="M25.8487 9.06749C25.2416 8.46117 24.5709 7.88697 23.8359 7.34479C23.9319 7.72752 24.1236 8.11025 24.4751 8.39766C24.8583 8.78028 25.3376 9.03558 25.8487 9.06749Z" fill="#878787"/>
<path d="M55.1674 22.6586C55.4228 23.9988 55.9342 24.9877 57.1799 25.3705C58.6816 25.8172 60.5345 25.7214 61.4612 24.5092C61.7805 24.0944 61.8444 23.4563 61.6848 22.9459C61.4612 22.1164 60.7263 21.925 59.2888 21.6379C58.0428 21.3508 54.9758 21.0315 53.3465 19.7873C52.0365 18.7984 51.3658 16.8841 52.0365 14.7786C52.8352 12.5133 55.1354 11.5242 56.8607 11.2691C60.0556 10.7906 62.6433 12.0029 63.7613 13.1513C64.624 14.0447 65.1991 15.4804 65.1352 16.8842H61.5889C61.557 16.4374 61.4931 16.0229 61.3014 15.64C60.8861 14.6827 59.8639 14.1085 58.7776 14.1085C57.5318 14.0129 56.2219 14.3318 55.7107 15.3847C55.519 15.7676 55.519 16.4375 55.8383 16.8205C56.6052 17.6818 58.1067 17.7456 59.3846 17.9689C61.5889 18.3518 63.9851 18.7345 65.0394 20.5531C66.2534 22.6587 65.5823 25.0517 64.8156 26.0087C64.2727 26.6787 63.6657 27.285 62.8349 27.7634C61.4613 28.5291 59.0971 28.8163 56.7969 28.4334C54.6884 28.1143 53.2506 27.0615 52.452 25.7536C51.8131 24.7644 51.4297 23.9031 51.4297 22.6587L55.1674 22.6586Z" fill="#878787"/>
<path d="M39.1003 18.0645H45.1066C45.2024 16.6925 44.1481 15.161 42.7424 14.7145C41.4966 14.3316 40.1546 14.5868 39.0366 15.4803C38.0461 16.4054 37.6946 18.3196 37.6946 19.5001C37.7585 21.7333 38.1738 23.3286 39.4838 24.2857C40.3463 24.8919 42.2634 25.7213 43.9883 24.477C44.7551 23.9028 45.1065 23.137 45.2343 22.5628H49.5153C49.4195 23.9028 48.1096 26.0405 46.8318 26.9974C44.5315 28.6885 41.4965 29.0074 39.1324 28.1141C34.0207 26.1999 33.1901 21.3185 33.5736 18.4154C33.7651 17.2029 34.2125 15.9588 34.8193 14.8739C36.0335 12.9598 37.7585 11.6198 40.1545 11.2369C42.7423 10.8541 45.3301 11.6516 47.0235 13.534C47.9817 14.6189 48.8764 16.4372 49.2278 17.9367C49.4195 18.9257 49.611 19.9785 49.5153 21.0634H39.1003V18.0645Z" fill="#878787"/>
<path d="M75.0781 25.3704V28.4333C76.4199 28.1462 77.4741 27.5399 78.4966 26.7104C78.5284 26.9657 78.7841 27.8591 78.9758 28.1142H83.0011C82.3621 26.8701 82.458 25.0515 82.458 24.0306V18.8941C82.4261 17.5539 82.4261 16.2139 82.1386 14.9699C81.8511 13.7256 80.7329 11.6517 77.1866 11.237C76.5157 11.1732 75.8128 11.1732 75.0781 11.1732V14.236C76.0366 14.2042 76.9949 14.4275 77.6659 15.0655C78.113 15.4803 78.2408 16.0545 78.113 16.6926C77.8576 17.6816 76.7712 18.0326 75.0781 18.2558V20.8721C75.5253 20.84 76.0045 20.7444 76.5156 20.585C77.5699 20.3617 77.8255 20.1702 78.3366 19.7872C78.3366 20.1701 78.4005 22.8821 78.1451 23.4243C77.7298 24.573 76.5157 25.2428 75.0781 25.3704Z" fill="#878787"/>
<path d="M75.0743 14.236V11.1732C73.8921 11.237 72.6144 11.4284 71.624 11.8113C69.5155 12.6728 68.4609 14.7146 68.4609 16.8841H72.2947C72.1989 15.7675 72.9975 14.7784 73.7964 14.4913C74.1157 14.3317 74.5949 14.236 75.0743 14.236Z" fill="#878787"/>
<path d="M75.0759 20.8721V18.2559C74.5009 18.3518 73.8299 18.4156 73.0952 18.5112C71.0825 18.7345 68.2072 19.7235 67.5362 22.6587C67.3126 23.8073 67.5044 25.913 69.2615 27.2849C70.4754 28.21 72.1368 28.6249 73.4466 28.5928C74.0216 28.5928 74.5966 28.529 75.0759 28.4334V25.3705C74.7884 25.4343 74.4688 25.4661 74.1174 25.4343C73.1588 25.4343 72.3284 24.9557 72.0089 24.222C71.6256 23.5202 71.8492 22.7862 72.1046 22.3715C72.6798 21.3507 73.6702 21.1592 75.0759 20.8721Z" fill="#878787"/>
<path d="M75.193 11.4839C75.2027 11.5364 75.2086 11.5929 75.2163 11.6469C75.2318 11.7364 75.2351 11.827 75.2383 11.9176C75.2409 12.0111 75.2402 12.1047 75.2404 12.1982C75.2401 12.2774 75.2409 12.3566 75.2415 12.4358C75.2419 12.4949 75.2416 12.554 75.2417 12.6131C75.2416 12.6742 75.2415 12.7353 75.2414 12.7963C75.2393 12.8876 75.2399 12.9788 75.2405 13.0701C75.2472 13.1306 75.2373 13.1899 75.2323 13.2497C75.206 13.4079 74.843 13.6009 74.9111 13.3629C74.9549 13.2124 74.9589 13.0566 74.9629 12.9012C74.9627 12.8126 74.9606 12.724 74.9588 12.6354C74.9559 12.5693 74.9683 12.504 74.9776 12.4388C74.9888 12.3737 75.0055 12.3097 75.0215 12.2457C75.0365 12.1937 75.0505 12.1416 75.0655 12.0897C75.0795 12.04 75.0805 11.9885 75.0836 11.9374C75.0866 11.8885 75.0566 11.8616 75.0332 11.8239C75.004 11.7874 74.9751 11.7508 74.9456 11.7144C74.9245 11.682 74.903 11.6499 74.8813 11.6181C74.8744 11.5786 74.8494 11.5491 74.8326 11.5144C74.8239 11.5012 74.814 11.4888 74.8047 11.4761L75.1305 11.282C75.1406 11.2966 75.1507 11.3112 75.1606 11.326C75.1792 11.3599 75.2021 11.3905 75.2093 11.4296C75.2298 11.4598 75.2508 11.49 75.2704 11.521C75.2989 11.5572 75.3269 11.5938 75.3559 11.6296C75.3865 11.674 75.4189 11.7102 75.4201 11.7675C75.4177 11.821 75.4173 11.8748 75.4055 11.9273C75.3897 11.9796 75.3773 12.0326 75.3613 12.085C75.3444 12.1478 75.3259 12.2104 75.3154 12.2748C75.3057 12.3376 75.2918 12.4009 75.2931 12.4649C75.2933 12.5548 75.2941 12.6449 75.2916 12.7348C75.2859 12.8916 75.2817 13.0491 75.2451 13.2026C75.2207 13.3553 74.851 13.6276 74.8927 13.4145C74.9008 13.3561 74.9146 13.2995 74.9075 13.2395C74.9082 13.1486 74.9088 13.0576 74.9066 12.9667C74.9066 12.9057 74.9064 12.8447 74.9064 12.7837C74.9064 12.7245 74.9062 12.6653 74.9066 12.6061C74.9074 12.5265 74.9083 12.4469 74.9082 12.3672C74.9083 12.274 74.9082 12.1807 74.9067 12.0875C74.9035 11.9986 74.9008 11.9095 74.886 11.8215C74.8768 11.7667 74.8744 11.7083 74.8531 11.6569L75.193 11.4839Z" fill="#878787"/>
<path d="M75.1368 12.0691C75.133 12.1364 75.133 12.2039 75.1322 12.2713C75.131 12.3921 75.1317 12.513 75.1321 12.6338C75.1325 12.7526 75.1591 12.8677 75.1881 12.9821C75.2159 13.0542 75.2352 13.1283 75.2534 13.2031C75.2625 13.2674 75.2613 13.3325 75.2623 13.3973C75.2571 13.4488 75.2767 13.4949 75.2898 13.5434C75.303 13.5867 75.3261 13.6255 75.3472 13.6652C75.3692 13.6996 75.3828 13.7382 75.3998 13.7748C75.4085 13.8163 75.3995 13.8585 75.3952 13.9C75.3952 13.9156 75.3921 13.9309 75.3906 13.9464L75.0506 14.1111C75.0528 14.0968 75.0622 14.0838 75.0573 14.0684C75.0611 14.0311 75.0645 13.9938 75.0684 13.9566C75.0528 13.9224 75.0403 13.8864 75.0199 13.8542C74.9977 13.8115 74.9736 13.7695 74.9589 13.7233C74.9424 13.6725 74.9236 13.6223 74.9274 13.5678C74.927 13.5049 74.9284 13.4419 74.921 13.3793C74.9055 13.3046 74.8889 13.2305 74.8618 13.1587C74.8326 13.0414 74.8054 12.9234 74.8016 12.802C74.802 12.6812 74.8027 12.5603 74.8015 12.4395C74.8007 12.3737 74.8007 12.3078 74.7969 12.2421L75.1368 12.0691Z" fill="#878787"/>
<path d="M74.9526 14.0422C74.9444 13.9978 74.9399 13.9524 74.9347 13.9073C74.9312 13.8706 74.931 13.8338 74.9297 13.797L75.2651 13.6255C75.266 13.6616 75.2659 13.6977 75.2687 13.7338C75.2737 13.7793 75.2742 13.8266 75.2925 13.8693L74.9526 14.0422Z" fill="#878787"/>
<path d="M75.2149 18.4036C75.2127 18.4469 75.2129 18.4904 75.2123 18.5338C75.212 18.597 75.2124 18.6601 75.2127 18.7232C75.209 18.7766 75.2161 18.8287 75.2229 18.8814C75.2334 18.9515 75.2344 19.0224 75.2362 19.0931C75.2374 19.1717 75.2374 19.2503 75.2375 19.3289C75.238 19.3972 75.2377 19.4654 75.2377 19.5337C75.2377 19.6 75.2377 19.6663 75.2379 19.7327C75.2366 19.8079 75.2373 19.8831 75.2377 19.9584C75.2381 20.0147 75.2382 20.0709 75.2384 20.1272C75.2385 20.1781 75.2384 20.2289 75.2384 20.2797C75.2369 20.3288 75.2395 20.3778 75.2406 20.4267C75.2208 20.4649 75.2617 20.4886 75.2681 20.5074C75.3116 20.521 75.3311 20.5575 75.3599 20.5876C75.3696 20.6018 75.3719 20.6189 75.3779 20.6345L75.0466 20.8154C75.0466 20.8152 75.0372 20.7778 75.0335 20.7779C75.007 20.7562 74.988 20.7233 74.9506 20.7136C74.9265 20.675 74.8943 20.6579 74.9064 20.6024C74.9044 20.5522 74.8996 20.5014 74.9024 20.4507C74.9024 20.3999 74.9024 20.349 74.9025 20.2981C74.9026 20.2416 74.9027 20.1851 74.9032 20.1286C74.9036 20.0534 74.9043 19.9782 74.903 19.9031C74.9031 19.8367 74.9032 19.7703 74.9032 19.7038C74.9033 19.6355 74.9031 19.5671 74.9037 19.4987C74.9038 19.4203 74.9042 19.3419 74.903 19.2635C74.9011 19.1946 74.9002 19.1254 74.8901 19.057C74.8815 19.0027 74.8726 18.9492 74.8772 18.8939C74.8775 18.8307 74.8779 18.7674 74.8776 18.7041C74.8771 18.6616 74.8773 18.619 74.875 18.5765L75.2149 18.4036Z" fill="#878787"/>
<path d="M75.2462 25.5012C75.244 25.5396 75.2446 25.5781 75.2442 25.6166C75.2441 25.6689 75.2441 25.7213 75.2442 25.7736C75.2445 25.8308 75.2438 25.888 75.2433 25.9452C75.2497 26.0632 75.2753 26.1793 75.2942 26.2959C75.3085 26.392 75.315 26.4888 75.319 26.5857C75.3205 26.662 75.32 26.7384 75.3199 26.8147C75.3198 26.9018 75.319 26.9889 75.3183 27.0759C75.3178 27.164 75.319 27.252 75.3199 27.3401C75.3156 27.4073 75.3232 27.4732 75.3304 27.5397C75.3397 27.5952 75.3419 27.6513 75.3449 27.7074C75.3411 27.7583 75.3511 27.8078 75.3563 27.8579C75.3658 27.909 75.3775 27.9597 75.3879 28.0106C75.3973 28.0616 75.3944 28.1133 75.3954 28.1647C75.396 28.1828 75.3849 28.1972 75.3797 28.2135L75.0353 28.3677C75.0425 28.3557 75.0532 28.3458 75.0568 28.3317C75.0579 28.2839 75.064 28.2348 75.0546 28.1866C75.0441 28.1359 75.0346 28.0849 75.0233 28.0344C75.0148 27.9828 75.0061 27.932 75.0096 27.8793C75.0074 27.8243 75.0062 27.7691 74.9979 27.7146C74.9896 27.6465 74.9809 27.5791 74.9854 27.5103C74.9863 27.4217 74.9875 27.3331 74.987 27.2445C74.9864 27.1578 74.9857 27.0712 74.986 26.9845C74.9862 26.9085 74.9867 26.8324 74.9857 26.7563C74.9835 26.6601 74.9807 26.5637 74.9675 26.4681C74.9493 26.3502 74.9245 26.2334 74.9091 26.1152C74.9086 26.0583 74.9079 26.0014 74.9083 25.9445C74.9083 25.8922 74.9084 25.8399 74.9082 25.7875C74.9078 25.7498 74.9085 25.7119 74.9062 25.6742L75.2462 25.5012Z" fill="#878787"/>
<path d="M75.2696 25.4504C75.2681 25.4837 75.2681 25.5171 75.2676 25.5504C75.2671 25.607 75.2674 25.6635 75.2675 25.7201C75.2635 25.769 75.2704 25.8174 75.2735 25.8657L74.9403 26.0435C74.9359 25.9928 74.9261 25.9425 74.9318 25.8909C74.9319 25.8344 74.9322 25.7779 74.9317 25.7214C74.9312 25.6887 74.9312 25.656 74.9297 25.6234L75.2696 25.4504Z" fill="#878787"/>
<path d="M75.3165 25.4504C75.3149 25.4827 75.3152 25.515 75.3148 25.5472C75.3145 25.5973 75.3145 25.6474 75.3145 25.6974L74.9786 25.8684C74.9785 25.8184 74.9786 25.7684 74.9783 25.7185C74.9779 25.6868 74.9782 25.6551 74.9766 25.6234L75.3165 25.4504Z" fill="#878787"/>
<path d="M74.8032 25.7829C74.7676 25.7563 74.8102 25.7247 74.8128 25.7027C74.8194 25.6995 74.8207 25.6923 74.8247 25.6872L75.1668 25.5229C75.1668 25.5229 75.166 25.5543 75.1617 25.5543C75.151 25.5637 75.1329 25.5807 75.1283 25.5839L74.8032 25.7829Z" fill="#878787"/>
<path d="M75.0511 18.426C75.0826 18.4271 75.1141 18.4268 75.1456 18.4271C75.1922 18.424 75.2372 18.4359 75.2825 18.4451C75.3245 18.4548 75.3616 18.4763 75.3997 18.4922C75.5311 18.663 75.0696 18.6784 75.0623 18.6811C75.0425 18.625 74.9984 18.5965 74.96 18.5593C74.9153 18.5462 74.8693 18.5632 74.825 18.5706C74.7767 18.5935 74.7296 18.5826 74.6797 18.5817L74.9876 18.3628C75.0338 18.3587 75.0804 18.361 75.1251 18.3427C75.1783 18.3374 75.2274 18.3267 75.2768 18.3544C75.3198 18.3951 75.3599 18.4332 75.386 18.489C75.2871 18.5619 75.1517 18.7966 75.0811 18.6961C75.0456 18.6841 75.0101 18.6694 74.9731 18.6615C74.9288 18.6547 74.8855 18.6434 74.8401 18.6488C74.8076 18.649 74.775 18.6489 74.7425 18.6499L75.0511 18.426Z" fill="#878787"/>
<path d="M75.2149 13.748C75.2114 13.7663 75.2402 13.7691 75.2523 13.7792C75.2831 13.8033 75.2992 13.8402 75.3203 13.8722C75.3449 13.9043 75.3581 13.9424 75.3756 13.978L75.0444 14.1601C75.0285 14.1281 75.0171 14.0931 74.9944 14.0643C74.9759 14.0368 74.963 14.0034 74.9344 13.9851C74.9137 13.965 74.8748 13.9572 74.875 13.921L75.2149 13.748Z" fill="#878787"/>
</g>
<defs>
<clipPath id="clip0_1037_6242">
<rect width="83" height="31" fill="white" transform="translate(0 4)"/>
</clipPath>
</defs>
</svg>
