<svg width="31" height="32" viewBox="0 0 31 32" fill="none" xmlns="http://www.w3.org/2000/svg">
<path d="M31 0.28125H0V31.2813H31V0.28125Z" fill="#FF0032"/>
<path d="M20.6562 2.64575V4.0915H23.7707V9.84272H25.5177V4.0915H28.6322V2.64575H20.6562Z" fill="white"/>
<path d="M9.43593 2.66577L7.15805 7.39793L4.88017 2.66577H2.39062V9.8209H4.13431V4.70053L6.3618 9.02608H7.95094L10.1784 4.70053V9.8209H11.9221V2.66577H9.43257H9.43929H9.43593Z" fill="white"/>
<path d="M26.8784 26.5106C26.8465 26.7733 26.7256 27.0193 26.5357 27.21C26.3409 27.3891 26.1007 27.5112 25.8369 27.5631C25.4556 27.6367 25.0709 27.6719 24.6829 27.6685C24.2696 27.6752 23.8597 27.6166 23.465 27.4895C23.1408 27.384 22.8653 27.1749 22.6771 26.8938C22.4873 26.6126 22.3915 26.2044 22.3915 25.689V24.9561C22.3915 24.4373 22.4873 24.0307 22.6771 23.7479C22.8653 23.4668 23.1408 23.2576 23.465 23.1522C23.8597 23.0267 24.2696 22.9665 24.6829 22.9732C25.0709 22.9665 25.4589 23.0016 25.8369 23.0786C26.0956 23.1305 26.3375 23.2509 26.5357 23.4317C26.7256 23.6207 26.8465 23.8634 26.8784 24.1294H28.6255C28.5936 23.5789 28.3853 23.0535 28.0258 22.6335C27.673 22.2453 27.2178 21.9708 26.7155 21.832C26.0519 21.6563 25.3699 21.5759 24.6879 21.5893C23.8513 21.5893 23.1273 21.7115 22.531 21.9474C21.9447 22.175 21.4508 22.595 21.1367 23.1388C20.8293 23.6676 20.6697 24.3721 20.6562 25.2372V25.4012C20.6663 26.2663 20.8293 26.9707 21.1367 27.4995C21.4508 28.045 21.9447 28.4667 22.531 28.6909C23.1273 28.9285 23.8513 29.0507 24.6879 29.0507C25.3733 29.0641 26.057 28.9837 26.7155 28.8064C27.2211 28.6725 27.6764 28.3931 28.0258 28.0048C28.3819 27.5848 28.5936 27.0594 28.6255 26.5089H26.8818L26.8784 26.5122V26.5106Z" fill="white"/>
</svg>
