<svg width="131" height="32" viewBox="0 0 131 32" fill="none" xmlns="http://www.w3.org/2000/svg">
<g clip-path="url(#clip0_1093_1286)">
<path d="M23.1451 6.49485C21.4648 5.40642 20.2511 3.66387 19.8731 1.63303C19.7913 1.1942 19.7466 0.742565 19.7466 0.280396H14.3828L14.3745 21.6396C14.2843 24.0317 12.3032 25.9511 9.87441 25.9511C9.11985 25.9511 8.40848 25.7637 7.78271 25.4363C6.34784 24.6858 5.36524 23.1909 5.36524 21.471C5.36524 19.0005 7.38801 16.9908 9.87441 16.9908C10.3388 16.9908 10.7835 17.0668 11.2047 17.1978V11.7571C10.7691 11.6984 10.3259 11.6615 9.87441 11.6615C4.42886 11.6623 0 16.0627 0 21.4717C0 24.7904 1.66897 27.7276 4.21522 29.5032C5.81904 30.6218 7.76983 31.2811 9.87366 31.2811C15.3177 31.2811 19.7466 26.8807 19.7466 21.4717V10.6408C21.8504 12.141 24.4277 13.0254 27.2096 13.0254V7.69544C25.7111 7.69544 24.3156 7.25284 23.1459 6.49485H23.1451Z" fill="black"/>
<path d="M32.3281 7.72205H49.2428L47.6898 12.5304L43.3018 12.5289V30.3051H37.8343V12.5289L32.3327 12.5387L32.3289 7.72205H32.3281Z" fill="black"/>
<path d="M76.9531 7.72205H94.2587L92.7057 12.5304L87.9351 12.5289V30.3051H82.4593V12.5289L76.9577 12.5387L76.9539 7.72205H76.9531Z" fill="black"/>
<path d="M50.2734 14.9052H55.6963L55.6902 30.305H50.3053L50.2734 14.9052Z" fill="black"/>
<path d="M57.8438 7.65881H63.2605V18.1758L68.6288 12.9414H75.0956L68.3045 19.4893L75.9107 30.3051H69.9424L64.8666 22.805L63.2605 24.3556V30.3051H57.8438V7.65881Z" fill="black"/>
<path d="M112.93 7.65881H118.346V18.1758L123.715 12.9414H130.182L123.39 19.4893L130.997 30.3051H125.028L119.953 22.805L118.346 24.3556V30.3051H112.93V7.65881Z" fill="black"/>
<path d="M52.9796 13.1454C54.4871 13.1454 55.7092 11.9312 55.7092 10.4334C55.7092 8.93554 54.4871 7.72131 52.9796 7.72131C51.4721 7.72131 50.25 8.93554 50.25 10.4334C50.25 11.9312 51.4721 13.1454 52.9796 13.1454Z" fill="black"/>
<path d="M101.45 11.868C96.3257 11.868 92.1719 15.9952 92.1719 21.0866C92.1719 26.178 96.3257 30.3052 101.45 30.3052C106.574 30.3052 110.728 26.178 110.728 21.0866C110.728 15.9952 106.574 11.868 101.45 11.868ZM101.45 25.5675C98.9591 25.5675 96.9394 23.5608 96.9394 21.0858C96.9394 18.6109 98.9591 16.6042 101.45 16.6042C103.941 16.6042 105.961 18.6109 105.961 21.0858C105.961 23.5608 103.941 25.5675 101.45 25.5675Z" fill="black"/>
</g>
<defs>
<clipPath id="clip0_1093_1286">
<rect width="131" height="31" fill="white" transform="translate(0 0.28125)"/>
</clipPath>
</defs>
</svg>
