<svg width="36" height="32" viewBox="0 0 36 32" fill="none" xmlns="http://www.w3.org/2000/svg">
<path fill-rule="evenodd" clip-rule="evenodd" d="M26.759 15.7398L33.9617 8.49494C34.5997 7.80997 35.0284 6.94937 35.1952 6.01871C35.3621 5.08804 35.2598 4.12778 34.901 3.25572C34.5422 2.38366 33.9424 1.63772 33.1753 1.1094C32.4081 0.581087 31.507 0.293372 30.5824 0.281549C29.3425 0.267468 28.1465 0.750728 27.2506 1.62784L16.6589 12.2694C15.7686 13.1948 15.2696 14.4413 15.2696 15.7398C15.2696 17.0384 15.7686 18.2849 16.6589 19.2103L27.2506 29.856C27.914 30.5363 28.7598 30.9997 29.6809 31.1876C30.6019 31.3755 31.5568 31.2793 32.4244 30.9114C33.292 30.5434 34.0333 29.9202 34.5544 29.1207C35.0755 28.3212 35.353 27.3814 35.3516 26.4204C35.3516 25.1319 34.8517 23.8962 33.9617 22.9847L26.759 15.7398ZM5.09765 0.295464C3.83889 0.296571 2.63202 0.808864 1.74213 1.71982C0.852244 2.63078 0.352103 3.86591 0.351562 5.15392V26.3814C0.351562 27.67 0.851329 28.9056 1.74139 29.8171C2.40482 30.4971 3.25059 30.9603 4.17153 31.148C5.09247 31.3358 6.04716 31.2396 6.91463 30.8717C7.7821 30.5037 8.52333 29.8806 9.04441 29.0813C9.56549 28.2819 9.84297 27.3423 9.84169 26.3814V5.15392C9.8422 4.1931 9.56423 3.25371 9.04295 2.45454C8.52166 1.65537 7.78048 1.03233 6.91313 0.664215C6.33754 0.420365 5.72061 0.295058 5.09765 0.295464Z" fill="#FFD200"/>
</svg>
