<svg width="105" height="34" viewBox="0 0 105 34" fill="none" xmlns="http://www.w3.org/2000/svg">
<g clip-path="url(#clip0_1093_1599)">
<path d="M53.2266 8.17334H56.0479V10.6531H53.2266V8.17334ZM53.2266 12.0955H56.0479V22.5219H53.2266V12.0955Z" fill="#76777A"/>
<path d="M60.3429 13.7613H60.4047C61.0476 12.582 61.7738 11.9731 63.0192 11.9731C63.3306 11.9731 63.5172 11.9941 63.6835 12.0546V14.4738H63.6205C61.7738 14.291 60.4463 15.2457 60.4463 17.4413V22.523H57.625V12.0954H60.3429V13.7625V13.7613Z" fill="#76777A"/>
<path d="M69.1875 8.17334H72.0088V10.6531H69.1875V8.17334ZM69.1875 12.0955H72.0088V22.5219H69.1875V12.0955Z" fill="#76777A"/>
<path d="M76.3454 13.5182H76.4072C77.1334 12.4006 78.1079 11.8115 79.5613 11.8115C81.761 11.8115 83.2335 13.4379 83.2335 15.7139V22.5232H80.4122V16.1213C80.4122 15.0037 79.7479 14.2109 78.5654 14.2109C77.3211 14.2109 76.4072 15.1865 76.4072 16.6091V22.5232H73.5859V12.0956H76.3454V13.5182Z" fill="#76777A"/>
<path d="M84.3906 17.2983C84.3906 14.2085 86.5274 11.8103 89.6399 11.8103C93.0637 11.8103 94.8891 14.3715 94.8891 18.0899H87.1715C87.3795 19.6953 88.2922 20.6919 89.8894 20.6919C90.9887 20.6919 91.6316 20.2041 91.943 19.4113H94.7227C94.3281 21.2612 92.6477 22.8258 89.9096 22.8258C86.3824 22.8258 84.3906 20.4066 84.3906 17.2971V17.2983ZM87.2119 16.1807H91.9418C91.8586 14.8593 90.9661 13.9443 89.6803 13.9443C88.1864 13.9443 87.4603 14.8186 87.2107 16.1807H87.2119Z" fill="#76777A"/>
<path d="M95.5391 19.147H98.1536C98.3402 20.3461 99.2113 20.8747 100.477 20.8747C101.743 20.8747 102.427 20.4066 102.427 19.6755C102.427 18.6802 101.078 18.5777 99.626 18.2937C97.7174 17.9281 95.8492 17.4193 95.8492 15.1434C95.8492 12.8674 97.7578 11.8103 100.186 11.8103C102.987 11.8103 104.542 13.1724 104.75 15.2656H102.199C102.074 14.148 101.348 13.7417 100.145 13.7417C99.0461 13.7417 98.32 14.148 98.32 14.9001C98.32 15.7941 99.7306 15.8756 101.246 16.1807C103.03 16.5462 105.001 17.034 105.001 19.473C105.001 21.5662 103.175 22.827 100.52 22.827C97.4286 22.827 95.7066 21.3636 95.5403 19.1482L95.5391 19.147Z" fill="#76777A"/>
<path d="M46.5725 8.17334H43.2889L37.3516 22.5219H40.7124L41.8117 19.5754H47.8702L48.9909 22.5219H52.3731L46.5737 8.17334H46.5725ZM42.621 17.1562L44.7994 11.0582L47.0395 17.1562H42.6198H42.621Z" fill="#76777A"/>
<path d="M67.6115 8.17334H64.7891V22.5219H67.6115V8.17334Z" fill="#76777A"/>
<path d="M33.6868 16.7847C33.6868 25.9003 26.1511 33.2812 16.8482 33.2812C7.54524 33.2812 0 25.9003 0 16.7847C0 7.66917 7.54524 0.28125 16.8482 0.28125C26.1511 0.28125 33.6868 7.66917 33.6868 16.7847Z" fill="#C2D500"/>
<path d="M15.6228 8.17212C12.9702 8.17212 11.2482 8.31531 10.0028 8.76935C7.90877 9.56798 6.46365 11.2432 6.46365 13.4436C6.46365 15.276 7.33476 16.6043 9.85658 18.1306C12.5471 19.7278 13.0831 20.2564 13.0831 21.2191C13.0831 22.2727 12.029 23.4718 9.31823 23.4718C8.37225 23.4718 6.94615 23.3438 6.03582 23.1249L5.60086 23.0178C5.35843 23.6546 4.80819 25.1611 4.64062 25.7071L5.07083 25.8316C5.88965 26.0878 7.83508 26.288 9.22791 26.288C13.8627 26.288 16.627 23.5452 16.627 20.6731C16.627 18.9082 15.8093 17.5671 13.0451 15.8779C11.6582 15.042 10.9523 14.5006 10.5221 14.0815C10.1739 13.6438 10.1359 13.3178 10.1359 12.9732C10.1359 12.6286 10.2107 12.2654 10.4318 11.9883C10.6706 11.6449 11.1104 11.4272 11.7034 11.2467C12.3142 11.0488 13.4444 11.043 15.2056 11.043H16.8456L18.0162 8.17445H15.6228V8.17212ZM28.0167 8.17212H19.7751L18.6033 11.0407H21.3355C23.174 11.0407 23.5269 11.0023 23.9892 11.0023C23.3225 12.4959 19.3069 22.5207 19.3069 22.5207H22.7057C22.7057 22.5207 27.7898 10.0406 28.3293 8.73209C28.479 8.43988 28.4042 8.17212 28.0167 8.17212Z" fill="white"/>
</g>
<defs>
<clipPath id="clip0_1093_1599">
<rect width="105" height="33" fill="white" transform="translate(0 0.28125)"/>
</clipPath>
</defs>
</svg>
