<svg width="129" height="32" viewBox="0 0 129 32" fill="none" xmlns="http://www.w3.org/2000/svg">
<path d="M98.5329 8.99861C97.6889 8.63838 96.7832 8.46342 95.8569 8.45312H95.8157C94.7865 8.46342 93.7779 8.65897 92.8413 9.06037C91.9253 9.45147 91.1019 9.99695 90.3918 10.7071C89.6816 11.407 89.1258 12.2304 88.7347 13.1464C88.3333 14.0932 88.1275 15.1019 88.1172 16.1414V16.1517V16.1723C88.1172 17.2221 88.3333 18.2513 88.7347 19.2085C89.1258 20.1347 89.6919 20.9684 90.402 21.6889C91.1122 22.4093 91.9459 22.9754 92.8722 23.3768C93.8293 23.7885 94.8483 24.0046 95.8981 24.0149H95.929H95.9392H95.9598H95.9701H95.9804C97.1434 24.0046 98.2447 23.737 99.2842 23.243C100.262 22.7695 101.106 22.1108 101.816 21.2772L99.8709 19.7231C99.3871 20.2788 98.821 20.7214 98.1726 21.0405C97.4728 21.3801 96.7214 21.5654 95.9392 21.5654C95.332 21.5654 94.7454 21.4521 94.1793 21.2566C93.6338 21.061 93.1295 20.7832 92.6663 20.4229C92.2135 20.073 91.8224 19.651 91.5033 19.1673C91.1843 18.6836 90.9372 18.1484 90.7829 17.5926L90.752 17.5H102.742L102.753 15.3592C102.753 14.4226 102.567 13.5169 102.207 12.6729C101.857 11.8495 101.363 11.1085 100.725 10.4807C100.097 9.84257 99.3562 9.34854 98.5329 8.99861ZM90.752 15.0401L90.7726 14.9475C90.9064 14.3917 91.1328 13.8565 91.4416 13.3728C91.7503 12.8993 92.1208 12.4774 92.5634 12.1274C93.006 11.7775 93.5 11.4996 94.0352 11.3041C94.591 11.1085 95.1673 11.0056 95.7643 11.0056C96.8552 11.0056 97.9051 11.4173 98.7078 12.148C99.5106 12.8788 100.015 13.8771 100.128 14.9475L100.138 15.0298H90.752V15.0401Z" fill="#FF2722"/>
<path d="M70.1349 8.45312C65.8534 8.45312 62.3746 11.8907 62.3438 16.162V31.2812H64.9683V21.6065C66.2754 22.9857 68.0765 23.8914 70.0835 24.0252C70.1041 24.0252 70.1246 24.0252 70.1349 24.0252C74.4371 24.0252 77.9261 20.5361 77.9261 16.234C77.9261 12.1377 74.7664 8.78248 70.7525 8.47371C70.7319 8.47371 70.6084 8.46342 70.5878 8.46342C70.4437 8.45313 70.2893 8.45312 70.1349 8.45312ZM75.2707 16.4604C75.2707 19.2908 72.9756 21.5859 70.1452 21.5859C67.3149 21.5859 65.0197 19.2908 65.0197 16.4604C65.0197 16.3884 65.0197 16.3266 65.0197 16.2546C65.0197 16.1928 65.0197 16.1208 65.0197 16.0488C65.0197 13.2184 67.3149 10.9232 70.1452 10.9232C72.9756 10.9232 75.2707 13.2184 75.2707 16.0488C75.2707 16.1208 75.2707 16.1825 75.2707 16.2546C75.2707 16.3266 75.2707 16.3884 75.2707 16.4604Z" fill="#FF2722"/>
<path d="M35.2932 20.9068V14.5462H43.7019V12.0041H35.2932V5.77728H44.762V3.10132H32.6172V23.5828H45.503V20.9068H35.2932Z" fill="#FF2722"/>
<path d="M61.2019 8.87524H58.0937L53.9357 14.2683L49.7879 8.87524H46.6797L52.3507 16.2239L46.6797 23.5828H49.7879L53.9357 18.1897L58.0937 23.5828H61.2019L55.531 16.2239L61.2019 8.87524Z" fill="#FF2722"/>
<path d="M113.936 16.2237C113.493 15.8841 112.979 15.6165 112.382 15.4209C111.795 15.2254 111.167 15.0607 110.509 14.9269C110.025 14.8446 109.552 14.7416 109.099 14.6078C108.646 14.4843 108.244 14.33 107.895 14.1653C107.545 14.0006 107.267 13.8051 107.071 13.5786C106.876 13.3625 106.773 13.0846 106.773 12.7758C106.773 12.4362 106.865 12.1377 107.04 11.8701C107.215 11.6025 107.442 11.3864 107.72 11.2217C107.997 11.057 108.306 10.9232 108.656 10.8409C109.006 10.7586 109.346 10.7174 109.685 10.7174C109.747 10.7174 109.819 10.7174 109.881 10.7174C111.157 10.7586 112.289 11.4173 112.979 12.395L114.934 11.0776C113.813 9.48234 111.97 8.45312 109.881 8.45312C109.15 8.45312 108.481 8.54575 107.822 8.7413C107.164 8.92656 106.577 9.20445 106.052 9.56468C105.527 9.92491 105.105 10.3778 104.786 10.9232C104.467 11.4687 104.313 12.1069 104.313 12.817C104.313 13.5786 104.457 14.1962 104.745 14.6799C105.033 15.1636 105.414 15.565 105.888 15.8635C106.361 16.1723 106.917 16.4193 107.545 16.6045C108.172 16.7898 108.841 16.9648 109.541 17.1089C109.943 17.1912 110.334 17.2838 110.715 17.397C111.095 17.5 111.435 17.644 111.723 17.8293C112.022 18.0043 112.258 18.2204 112.433 18.4777C112.608 18.735 112.701 19.0541 112.701 19.4555C112.701 19.8569 112.608 20.1965 112.413 20.4847C112.228 20.7729 111.97 21.0096 111.651 21.1948C111.332 21.3801 110.982 21.5242 110.591 21.6065C110.231 21.6889 109.881 21.73 109.531 21.73C107.936 21.73 106.536 20.9684 105.682 19.7951L103.695 21.3389C105.095 22.9651 107.184 24.0046 109.51 24.0046C110.231 23.9943 110.91 23.9017 111.589 23.7473C112.3 23.5826 112.927 23.3047 113.493 22.9445C114.049 22.574 114.502 22.1006 114.842 21.5036C115.181 20.917 115.346 20.1965 115.346 19.3525C115.346 18.6115 115.223 17.994 114.965 17.4897C114.729 16.9853 114.379 16.5634 113.936 16.2237Z" fill="#FF2722"/>
<path d="M127.71 17.4897C127.453 16.9853 127.113 16.5634 126.66 16.2237C126.218 15.8841 125.703 15.6165 125.106 15.4209C124.519 15.2254 123.892 15.0607 123.233 14.9269C122.749 14.8446 122.276 14.7416 121.823 14.6078C121.37 14.4843 120.969 14.33 120.619 14.1653C120.269 14.0006 119.991 13.8051 119.795 13.5786C119.6 13.3522 119.497 13.0846 119.497 12.7758C119.497 12.4362 119.589 12.1377 119.764 11.8701C119.939 11.6025 120.166 11.3864 120.444 11.2217C120.722 11.057 121.03 10.9232 121.38 10.8409C121.73 10.7586 122.07 10.7174 122.409 10.7174C122.471 10.7174 122.543 10.7174 122.605 10.7174C123.881 10.7586 125.013 11.4173 125.703 12.395V12.3847L127.658 11.0776L127.648 11.0673H127.658C126.537 9.48235 124.694 8.45312 122.605 8.45312H122.574C121.874 8.45312 121.205 8.54575 120.547 8.7413C119.888 8.92656 119.301 9.20445 118.776 9.56468C118.251 9.92491 117.829 10.3778 117.51 10.9232C117.191 11.4687 117.037 12.1069 117.037 12.817C117.037 13.5786 117.181 14.1962 117.469 14.6799C117.757 15.1636 118.138 15.565 118.612 15.8635C119.085 16.1723 119.641 16.4193 120.269 16.6045C120.907 16.7898 121.565 16.9648 122.265 17.1089C122.667 17.1912 123.058 17.2838 123.439 17.397C123.819 17.5 124.159 17.644 124.447 17.819C124.746 17.994 124.982 18.2101 125.157 18.4674C125.332 18.7247 125.425 19.0438 125.425 19.4452C125.425 19.8466 125.332 20.1862 125.137 20.4744C124.952 20.7626 124.694 20.9993 124.375 21.1846C124.056 21.3698 123.706 21.5139 123.315 21.5962C122.955 21.6786 122.605 21.7197 122.255 21.7197H122.234C120.67 21.7197 119.27 20.9581 118.416 19.7848L116.43 21.3286C117.829 22.9548 119.919 23.9943 122.245 23.9943V23.984C122.965 23.9737 123.644 23.8914 124.324 23.737C125.034 23.5723 125.662 23.2944 126.228 22.9342C126.784 22.5637 127.236 22.0903 127.576 21.4933C127.916 20.9067 128.08 20.1862 128.08 19.3422C128.091 18.6218 127.967 17.994 127.71 17.4897Z" fill="#FF2722"/>
<path d="M82.4604 8.83384H79.8359V15.8531C79.8359 15.9663 79.8359 16.0795 79.8359 16.1927V23.5825H82.4604V16.203C82.4604 13.3521 84.7762 11.0364 87.6168 11.0364V8.41187C85.651 8.41187 83.8499 9.1529 82.4604 10.3674V8.83384Z" fill="#FF2722"/>
<path d="M22.5698 3.10132H19.9453V23.5828H22.5698V3.10132Z" fill="#FF2722"/>
<path d="M10.5598 3.09106H7.86323L0 23.5828H2.56275L4.45651 18.6631H13.9665L15.8602 23.5828H18.423L10.5598 3.09106ZM5.48573 15.9666L9.2115 6.25076L12.9373 15.9666H5.48573Z" fill="#FF2722"/>
<path d="M28.8745 8.95776H26.25V23.5829H28.8745V8.95776Z" fill="#FF2722"/>
<path d="M27.5736 0.28125C27.5118 0.28125 27.4604 0.332708 27.4604 0.394461C27.4604 2.50436 25.7519 4.22315 23.6523 4.22315C23.5905 4.22315 23.5391 4.27461 23.5391 4.33636C23.5391 4.39812 23.5905 4.44958 23.6523 4.44958C25.7519 4.44958 27.4604 6.16837 27.4604 8.27827C27.4604 8.34002 27.5118 8.39149 27.5736 8.39149C27.6354 8.39149 27.6868 8.34002 27.6868 8.27827C27.6971 6.17866 29.4056 4.45987 31.4949 4.45987C31.5567 4.45987 31.6081 4.40841 31.6081 4.34666C31.6081 4.28491 31.5567 4.23344 31.4949 4.23344C29.3953 4.23344 27.6868 2.51465 27.6868 0.404751V0.394461C27.6868 0.363585 27.6765 0.33271 27.6559 0.312125C27.6251 0.291541 27.6045 0.28125 27.5736 0.28125Z" fill="#FF2722"/>
</svg>
