<svg width="31" height="32" viewBox="0 0 31 32" fill="none" xmlns="http://www.w3.org/2000/svg">
<g clip-path="url(#clip0_1093_1653)">
<mask id="mask0_1093_1653" style="mask-type:luminance" maskUnits="userSpaceOnUse" x="0" y="0" width="31" height="32">
<path d="M30.8493 0.28125H0.15625V31.2812H30.8493V0.28125Z" fill="white"/>
</mask>
<g mask="url(#mask0_1093_1653)">
<path d="M0.15625 15.1613C0.15625 8.14676 0.15625 4.63951 2.3138 2.46038C4.47136 0.28125 7.94388 0.28125 14.8889 0.28125H16.1166C23.0617 0.28125 26.5342 0.28125 28.6918 2.46038C30.8493 4.63951 30.8493 8.14676 30.8493 15.1613V16.4013C30.8493 23.4157 30.8493 26.923 28.6918 29.1021C26.5342 31.2812 23.0617 31.2812 16.1166 31.2812H14.8889C7.94388 31.2812 4.47136 31.2812 2.3138 29.1021C0.15625 26.923 0.15625 23.4157 0.15625 16.4013V15.1613Z" fill="#0077FF"/>
<path d="M16.4877 22.6143C9.49227 22.6143 5.5022 17.7706 5.33594 9.71057H8.84007C8.95517 15.6264 11.5385 18.1322 13.5846 18.6489V9.71057H16.8843V14.8126C18.9049 14.593 21.0276 12.2681 21.7437 9.71057H25.0433C24.4934 12.8622 22.1914 15.1872 20.5545 16.143C22.1914 16.918 24.8133 18.946 25.8108 22.6143H22.1787C21.3985 20.1601 19.4548 18.2614 16.8843 18.003V22.6143H16.4877Z" fill="white"/>
</g>
</g>
<defs>
<clipPath id="clip0_1093_1653">
<rect width="31" height="31" fill="white" transform="translate(0 0.28125)"/>
</clipPath>
</defs>
</svg>
