<svg width="31" height="32" viewBox="0 0 31 32" fill="none" xmlns="http://www.w3.org/2000/svg">
<g clip-path="url(#clip0_1093_1273)">
<path d="M15.5 31.2814C24.0604 31.2814 31 24.3435 31 15.7851C31 7.22674 24.0604 0.288818 15.5 0.288818C6.93959 0.288818 0 7.22674 0 15.7851C0 24.3435 6.93959 31.2814 15.5 31.2814Z" fill="white"/>
<path d="M9.74578 30.1699C9.55234 28.407 9.6875 26.7222 10.075 25.0951L11.625 18.4125C11.3733 17.5993 11.1792 16.6689 11.1792 15.7391C11.1792 13.5696 12.2258 12.02 13.8725 12.02C15.0158 12.02 15.8491 12.814 15.8491 14.3444C15.8491 14.8285 15.7523 15.3709 15.5583 15.9908L14.88 18.2185C14.7442 18.645 14.6866 19.0516 14.6866 19.3999C14.6866 20.9496 15.8683 21.8211 17.3798 21.8211C20.0731 21.8211 21.9914 19.0317 21.9914 15.4093C21.9914 11.3803 19.3564 8.8042 15.4622 8.8042C11.1222 8.8042 8.37124 11.6326 8.37124 15.5643C8.37124 17.1524 8.85546 18.6245 9.8053 19.6318C9.4953 20.1549 9.16608 20.2516 8.66202 20.2516C7.11202 20.2516 5.63952 18.0629 5.63952 15.0796C5.63952 9.92676 9.76624 5.82086 15.5595 5.82086C21.643 5.82086 25.4603 10.0631 25.4603 15.2928C25.4603 20.5225 21.7403 24.5131 17.7295 24.5131C16.1405 24.5131 14.7455 23.835 13.777 22.6145L12.9828 25.8303C12.5562 27.4958 11.917 29.0653 10.8903 30.5759C12.3436 31.0215 13.777 31.2732 15.5019 31.2732C24.0653 31.2732 31.0019 24.3383 31.0019 15.7769C31.0019 7.21553 24.0641 0.28125 15.5 0.28125C6.93594 0.28125 0 7.21615 0 15.7775C0 22.2668 3.99156 27.8646 9.74578 30.1699Z" fill="#E60023"/>
</g>
<defs>
<clipPath id="clip0_1093_1273">
<rect width="31" height="31" fill="white" transform="translate(0 0.28125)"/>
</clipPath>
</defs>
</svg>
