<svg width="86" height="31" viewBox="0 0 86 31" fill="none" xmlns="http://www.w3.org/2000/svg">
<path d="M23.0436 7C18.3318 7 14.5403 10.2505 14.5403 15.4813C14.5403 20.6747 18.3318 23.9253 23.0436 23.9253C27.7554 23.9253 31.5469 20.6747 31.5469 15.4813C31.5469 10.2505 27.7554 7 23.0436 7ZM23.0436 19.8527C20.6141 19.8527 19.1785 17.8725 19.1785 15.4813C19.1785 13.0527 20.6509 11.1099 23.0436 11.1099C25.4731 11.1099 26.9455 13.0901 26.9455 15.4813C26.9455 17.8725 25.4731 19.8527 23.0436 19.8527ZM84.076 19.7407L84.0392 13.4264C84.0392 9.69011 82.3091 7 76.0512 7C73.9898 7 72.0756 7.44835 70.6032 8.1956V11.7824C71.6339 11.1473 73.3272 10.5495 75.4622 10.5495C77.7445 10.5495 79.5482 11.2967 79.5482 13.4637V13.9868C78.5912 13.3516 77.0819 12.9407 75.315 12.9407C71.5971 12.9407 69.1308 15.4066 69.1308 18.4703C69.1308 21.5341 71.4867 24 75.2046 24C77.5605 24 79.3642 23.0286 80.3949 21.5341C80.5421 22.8418 81.2784 24 83.4502 24C84.2232 24 84.9226 23.8505 85.5484 23.6264V21.0857C84.7386 21.011 84.076 20.6374 84.076 19.7407ZM76.3457 20.3011C74.7628 20.3011 73.7321 19.3297 73.7321 18.1341C73.7321 16.9385 74.6156 15.8923 76.3825 15.8923C78.0758 15.8923 79.5482 16.9011 79.5482 16.9011C79.585 18.5451 78.628 20.3011 76.3457 20.3011ZM0.0368131 11.4462H4.71179V23.589H9.20271V11.4462H13.8777V7.37363H0V11.4462H0.0368131ZM66.9957 7.33626H62.468C62.468 11.4462 60.5538 13.389 57.6826 13.389H56.3942V7.33626H51.8665V23.5516H56.3942V17.1253H58.971L62.7257 23.5516H67.6951L63.057 15.7802C65.3761 14.211 66.9957 11.2593 66.9957 7.33626ZM43.6577 14.2483C42.8846 14.6593 41.7435 14.9209 40.7864 14.9209C39.0931 14.9209 37.8047 13.5011 37.8047 11.8945C37.8047 10.7736 37.8047 7.33626 37.8047 7.33626H33.277V11.8945C33.277 16.7143 36.1114 18.7692 40.087 18.7692C41.265 18.7692 42.627 18.4703 43.6209 18.1341V23.589H48.1486V7.37363H43.6577V14.2483Z" fill="black"/>
</svg>
