<svg width="123" height="31" viewBox="0 0 123 31" fill="none" xmlns="http://www.w3.org/2000/svg">
<path d="M122.998 13.2795V9.12485H118.005V3.70801H113.176V23.4563C113.176 25.2708 113.635 26.6537 114.541 27.5665C115.447 28.4801 116.858 28.9433 118.735 28.9433H122.998V24.7886H119.879C119.2 24.7886 118.713 24.6404 118.432 24.3477C118.173 24.0798 118.005 23.4031 118.005 22.6239V13.2795H122.998Z" fill="black"/>
<path d="M56.0827 9.12451L51.0896 23.5621L46.0966 9.12451H41.0234L48.2313 28.7735H53.948L61.1558 9.12451H56.0827Z" fill="black"/>
<path d="M88.7237 2H83.8945V28.7732H88.7237V2Z" fill="black"/>
<path d="M105.305 18.9678C105.305 20.2117 105.116 21.2939 104.742 22.1842C104.37 23.0698 103.839 23.7486 103.161 24.2015C102.484 24.6543 101.651 24.884 100.686 24.884C99.3053 24.884 98.2634 24.4331 97.5895 23.5443C96.9088 22.6461 96.5636 21.2846 96.5636 19.4982V9.125H91.7344V20.0285C91.7344 21.7263 91.948 23.1664 92.3699 24.3081C92.7917 25.4533 93.3713 26.3849 94.0925 27.0765C94.8132 27.7673 95.6549 28.2661 96.594 28.5599C97.5283 28.8521 98.5329 29 99.5806 29C101.091 29 102.34 28.728 103.294 28.1912C104.164 27.7003 104.892 27.1262 105.464 26.4826L105.896 28.7732H110.135V9.125H105.305V18.9678Z" fill="black"/>
<path d="M76.5098 10.1612C74.988 9.32273 73.1809 8.89795 71.1394 8.89795C69.123 8.89795 67.3226 9.32273 65.7882 10.1609C64.2519 11.0012 63.0449 12.188 62.2004 13.6881C61.3572 15.1868 60.9297 16.9633 60.9297 18.9678C60.9297 20.9477 61.3572 22.7117 62.2004 24.2105C63.0444 25.7101 64.2517 26.8966 65.7882 27.7368C67.3226 28.575 69.123 28.9998 71.1394 28.9998C73.1809 28.9998 74.988 28.575 76.5098 27.7366C78.0333 26.8968 79.2339 25.7103 80.0782 24.2105C80.9217 22.7109 81.3494 20.9469 81.3494 18.9678C81.3494 16.964 80.9217 15.1876 80.0782 13.688C79.2334 12.1877 78.033 11.0009 76.5098 10.1612ZM73.9586 24.2004C73.1806 24.7038 72.2322 24.9592 71.1397 24.9592C70.0722 24.9592 69.1299 24.7038 68.3389 24.2002C67.5465 23.696 66.9251 22.9843 66.4916 22.0847C66.0561 21.1843 65.8351 20.1358 65.8351 18.9678C65.8351 17.7758 66.0558 16.7211 66.4916 15.8329C66.9249 14.9455 67.5468 14.2336 68.3399 13.7167C69.1307 13.2003 70.0727 12.9386 71.1397 12.9386C72.2316 12.9386 73.1795 13.2003 73.9577 13.7161C74.7381 14.2333 75.3539 14.9455 75.7883 15.8332C76.2235 16.7235 76.4443 17.7782 76.4443 18.9678C76.4443 20.1332 76.2235 21.182 75.7883 22.0847C75.354 22.9846 74.7384 23.6962 73.9586 24.2004Z" fill="black"/>
<path d="M5.0186 8.60754H0V28.7734H5.0186V8.60754Z" fill="black"/>
<path d="M20.7567 9.76077C20.7567 5.48171 17.2501 2.00037 12.9397 2.00037H0V6.30693H12.3245C14.2751 6.30693 15.891 7.8298 15.9267 9.70147C15.9445 10.6386 15.5906 11.5231 14.9301 12.192C14.2693 12.861 13.3864 13.2297 12.4441 13.2297H7.64306C7.4726 13.2297 7.33386 13.3673 7.33386 13.5367V17.3643C7.33386 17.4294 7.3541 17.4916 7.39217 17.544L15.5378 28.7736H21.5006L13.336 17.5132C17.4477 17.3081 20.7567 13.8752 20.7567 9.76077Z" fill="black"/>
<path d="M36.1874 10.0468C34.7418 9.28435 33.0252 8.89795 31.0855 8.89795C29.1433 8.89795 27.4068 9.323 25.9241 10.1617C24.439 11.0012 23.2706 12.1882 22.4516 13.6891C21.6334 15.1866 21.2188 16.9754 21.2188 19.0062C21.2188 20.9853 21.6398 22.7487 22.4708 24.2478C23.3036 25.7503 24.5048 26.9307 26.0405 27.7561C27.5733 28.5816 29.4118 29.0001 31.5047 29.0001C33.165 29.0001 34.656 28.6909 35.9363 28.0809C37.2168 27.4693 38.2622 26.6363 39.0436 25.6052C39.7859 24.6252 40.2866 23.5168 40.5316 22.311L40.558 22.1824H35.7557L35.733 22.2597C35.4685 23.159 34.9556 23.8696 34.2077 24.3722C33.405 24.9127 32.419 25.1868 31.2767 25.1868C30.3086 25.1868 29.4342 24.9807 28.678 24.5741C27.9256 24.17 27.3373 23.592 26.9298 22.8557C26.5207 22.1168 26.2879 21.2278 26.2381 20.2186V20.0609H40.7441L40.7604 19.9727C40.811 19.6962 40.8435 19.4111 40.8576 19.1245C40.8696 18.8453 40.8765 18.5663 40.8765 18.2847C40.8507 16.381 40.4224 14.7065 39.6039 13.3073C38.7823 11.9064 37.6328 10.8093 36.1874 10.0468ZM34.4277 13.7471C35.2528 14.4371 35.7661 15.4176 35.9544 16.6634H26.4049C26.514 15.8551 26.7841 15.1551 27.2084 14.5808C27.6535 13.9784 28.2237 13.5052 28.9033 13.1741C29.5838 12.842 30.3309 12.6734 31.1235 12.6734C32.4635 12.6733 33.5752 13.0346 34.4277 13.7471Z" fill="black"/>
</svg>
