<svg width="110" height="32" viewBox="0 0 110 32" fill="none" xmlns="http://www.w3.org/2000/svg">
<g clip-path="url(#clip0_1093_1589)">
<path d="M13.4104 3.87821H11.2862C7.39349 3.87821 5.34834 5.79121 5.34834 8.62362C5.34834 11.8383 6.76447 13.3303 9.67411 15.2449L12.0733 16.8144L5.15239 26.8794H0L6.21448 17.8854C2.63465 15.3982 0.629023 12.9867 0.629023 8.89299C0.629023 3.76369 4.28625 0.28125 11.2483 0.28125H18.1692V26.8794H13.4104V3.87821Z" fill="#FC3F1D"/>
<path d="M56.7489 7.63H43.1014V9.27525C43.1014 13.9819 42.7869 20.0678 41.1353 23.2824H39.6797V31.2812H44.0055V26.8794H54.5062V31.2812H58.832V23.2824H56.7473V7.63H56.7489ZM52.0691 23.2824H45.4627C46.7603 20.3742 47.1143 15.1304 47.1143 11.8012V11.227H52.0691V23.2824Z" fill="black"/>
<path d="M33.0337 15.2449H26.7814V7.63H22.1016V26.8794H26.7814V18.8419H33.0337V26.8794H37.7135V7.63H33.0337V15.2449Z" fill="black"/>
<path d="M105.478 10.8446C107.288 10.8446 109.056 11.4576 110.001 12.0318V8.16706C109.018 7.63155 107.288 7.24927 104.967 7.24927C98.9901 7.24927 95.8828 11.4205 95.8828 17.2756C95.8828 23.705 98.911 27.2648 105.163 27.2648C107.327 27.2648 108.86 26.8825 110.001 26.0777V22.3646C108.822 23.1678 107.406 23.6663 105.44 23.6663C102.097 23.6663 100.721 21.1403 100.721 17.1595C100.721 13.1786 102.412 10.8446 105.48 10.8446H105.478Z" fill="black"/>
<path d="M95.2493 7.62988H90.53L83.922 16.5078V7.62988H79.2422V26.8793H83.922V17.4272L90.8445 26.8793H96.1534L88.6413 16.5078L95.2493 7.62988Z" fill="black"/>
<path d="M68.3926 7.24609C62.6903 7.24609 59.9766 11.4947 59.9766 17.3111C59.9766 24.0083 63.3588 27.2617 69.3362 27.2617C72.3248 27.2617 74.5281 26.4955 75.9047 25.5777V21.8662C74.449 22.8227 72.012 23.6647 69.7297 23.6647C66.308 23.6647 65.0104 22.0953 64.8144 18.8806H76.1023V16.4692C76.1023 9.77203 73.0741 7.24609 68.3943 7.24609H68.3926ZM71.3418 15.5127H64.8128C64.9314 12.4512 66.0708 10.8431 68.3136 10.8431C70.5563 10.8431 71.3418 12.719 71.3418 15.1288V15.511V15.5127Z" fill="black"/>
</g>
<defs>
<clipPath id="clip0_1093_1589">
<rect width="110" height="31" fill="white" transform="translate(0 0.28125)"/>
</clipPath>
</defs>
</svg>
