<svg width="111" height="34" viewBox="0 0 111 34" fill="none" xmlns="http://www.w3.org/2000/svg">
<path d="M0 0H33.9859V17.0995C33.9859 21.4831 31.6484 25.5338 27.8539 27.7258L16.993 34L6.13206 27.7258C2.33749 25.5338 0 21.4831 0 17.0995V0Z" fill="#FFDD2D"/>
<path fill-rule="evenodd" clip-rule="evenodd" d="M9.32812 8.99988V14.3182C10.0551 13.497 11.3768 12.9411 12.888 12.9411H14.5303V19.1236C14.5303 20.7685 14.0836 22.2081 13.4208 23.0001H20.5644C19.903 22.2073 19.4573 20.7695 19.4573 19.1268V12.9411H21.0996C22.6108 12.9411 23.9325 13.497 24.6595 14.3182V8.99988H9.32812Z" fill="#333333"/>
<path d="M55.2595 15.7351C57.0225 16.2356 57.8173 17.6174 57.8173 18.9992C57.8173 20.6469 56.8466 22.0287 55.2882 22.6178C54.5245 22.9112 53.6125 22.9998 52.3785 22.9998H42V8.99963H52.1726C53.4653 8.99963 54.3773 9.08824 55.0823 9.32294C56.6993 9.85339 57.5228 11.0879 57.5228 12.5883C57.5228 14.1174 56.5234 15.1759 55.2595 15.7351ZM51.6136 14.5293C52.0254 14.5293 52.3485 14.4994 52.5544 14.4119C53.0835 14.1761 53.3192 13.7641 53.3192 13.2936C53.3192 12.823 53.0835 12.4111 52.5831 12.235C52.3485 12.1464 52.0254 12.1177 51.6136 12.1177H46.0575V14.5293H51.6136ZM51.7609 19.7644C52.1726 19.7644 52.4958 19.7357 52.7304 19.647C53.2594 19.4411 53.4952 19.0292 53.4952 18.5299C53.4952 18.0581 53.2594 17.6761 52.789 17.5001C52.5544 17.4115 52.2312 17.3827 51.7609 17.3827H46.0575V19.7644H51.7609Z" fill="#333333"/>
<path d="M63.6628 20.9702L62.8693 22.9998H58.0469L63.7801 8.99963H70.0125L75.7457 22.9998H70.9532L70.1309 20.9702H63.6628ZM64.7209 17.8821H69.1016L67.0728 12.235H66.7497L64.7209 17.8821Z" fill="#333333"/>
<path d="M80.8766 8.99963L88.2556 16.6763V8.99963H92.3131V22.9998H88.55L80.9951 15.2645V22.9998H76.9375V8.99963H80.8766Z" fill="#333333"/>
<path d="M99.0603 17.706V22.9998H94.7969V8.99963H99.0603V14.2647H100.236L105.38 8.99963H110.731L103.91 15.7064L110.996 22.9998H105.321L100.236 17.706H99.0603Z" fill="#333333"/>
</svg>
