<svg width="99" height="37" viewBox="0 0 99 37" fill="none" xmlns="http://www.w3.org/2000/svg">
<g clip-path="url(#clip0_1093_1324)">
<path fill-rule="evenodd" clip-rule="evenodd" d="M17.9428 8.44527C16.5703 8.44527 15.4587 7.27607 15.4587 5.83307C15.4587 4.39007 16.5703 3.21994 17.9428 3.21994C19.3135 3.21994 20.426 4.39007 20.426 5.83307C20.426 7.27607 19.3144 8.44527 17.9428 8.44527ZM17.9428 0.14802C14.9503 0.14802 12.5248 2.69824 12.5248 5.84602C12.5229 7.08723 12.9091 8.29526 13.6249 9.28702L13.9851 9.81149L17.9419 14.8315L22.2598 9.28609C22.9753 8.29422 23.3612 7.0862 23.359 5.84509C23.359 2.69824 20.9334 0.147095 17.9419 0.147095L17.9428 0.14802ZM20.0099 26.6215V17.0598H15.9972V21.5507L11.9872 16.4826L0.820312 30.5944L4.53491 33.8467L11.9872 24.4302L19.4394 33.8467L23.1532 30.5944L20.0099 26.6215Z" fill="#0468FF"/>
<path fill-rule="evenodd" clip-rule="evenodd" d="M44.6192 17.0467H41.0607V30.08H34.0263V17.0477H30.4688V33.5432H43.5723V36.8528H46.7963V30.0818H44.6192V17.0467ZM52.8433 28.1523V17.0467H49.2857V33.5423H52.8433L60.2956 22.4367V33.5423H63.854V17.0467H60.2964L52.8433 28.1523ZM94.5165 17.0467V23.5282H87.2524V17.0467H83.6939V33.5423H87.2524V27.0136H94.5165V33.5423H98.0537V17.0467H94.5165ZM76.7083 26.577C76.7083 27.872 76.3596 28.8849 75.673 29.5888C74.9774 30.3011 73.9678 30.6618 72.6725 30.6618C71.0517 30.6618 70.1592 29.8941 70.1592 28.4982C70.1592 27.0432 71.3267 26.1746 73.2811 26.1746H76.7074L76.7083 26.577ZM73.738 16.7313C71.8785 16.7313 70.2772 17.2549 69.1061 18.2455C68.0104 19.1705 67.3619 20.4646 67.2741 21.89H70.782C70.9417 21.1241 71.7197 19.93 73.738 19.93C75.5975 19.93 76.7074 21.0982 76.7074 23.0546V23.136H73.1285C71.01 23.136 69.3731 23.6401 68.2633 24.6345C67.2004 25.5873 66.6619 26.9405 66.6619 28.6583C66.6619 30.1392 67.2155 31.4684 68.2234 32.3999C69.2542 33.3554 70.6879 33.8605 72.3682 33.8605C74.9996 33.8605 76.4315 32.51 76.9239 31.9309L77.1678 33.3443L77.2016 33.5395H80.2055V23.0546C80.2055 19.1548 77.7268 16.7313 73.738 16.7313Z" fill="#152242"/>
</g>
<defs>
<clipPath id="clip0_1093_1324">
<rect width="97.5892" height="37" fill="white" transform="translate(0.640625)"/>
</clipPath>
</defs>
</svg>
