<svg width="114" height="42" viewBox="0 0 114 42" fill="none" xmlns="http://www.w3.org/2000/svg">
<path fill-rule="evenodd" clip-rule="evenodd" d="M104.063 3.99538L104.076 3.90332V3.99538H104.063ZM104.063 3.99538C103.879 5.18426 103.564 6.15746 103.121 6.95838C102.713 7.71562 102.156 8.38219 101.483 8.91794C100.846 9.42032 100.163 9.83064 99.3906 10.0582C98.6165 10.3317 97.7978 10.5145 96.979 10.65L93.338 11.1984C92.3369 11.3352 91.383 11.5627 90.3806 11.8823C89.3942 12.1863 88.4699 12.6646 87.6515 13.2947C86.8327 13.9339 86.1492 14.7992 85.6046 15.8934C85.0575 16.9876 84.7387 18.4474 84.6481 20.2255H84.74C85.7158 18.7494 87.0452 17.5421 88.6067 16.7141C90.1536 15.8934 91.8829 15.4831 93.7028 15.4831C95.5226 15.4831 97.0237 15.7566 98.2072 16.3037C99.3893 16.8508 100.346 17.3979 101.074 18.0371C102.166 18.9485 102.984 20.0887 103.622 21.4564C104.258 22.8242 104.577 24.4655 104.577 26.425C104.577 28.6134 104.213 30.4375 103.44 31.896C102.666 33.3558 101.756 34.4947 100.573 35.3154C99.4353 36.182 98.1612 36.7291 96.7507 37.0934C95.3403 37.413 93.9757 37.5958 92.6571 37.5958C90.6548 37.5958 88.9701 37.2762 87.6974 36.6831C86.4234 36.0913 85.4223 35.4982 84.6927 34.8603C83.961 34.2154 83.3322 33.4618 82.8283 32.6259C82.3722 31.8177 82.0061 30.9616 81.7366 30.0732C81.5039 29.2054 81.3363 28.3214 81.2354 27.4285C81.1457 26.5651 81.1002 25.6978 81.099 24.8298C81.099 23.5541 81.1908 22.2311 81.3273 20.8633C81.4637 19.4956 81.7366 18.1278 82.0542 16.8061C82.373 15.4831 82.8283 14.2521 83.4187 13.0672C83.9289 11.9427 84.6209 10.9105 85.4669 10.0121C86.1491 9.28354 86.8314 8.69042 87.6056 8.23407C88.3105 7.78284 89.0575 7.40141 89.8361 7.09516C90.6089 6.82161 91.3371 6.59277 92.064 6.456C92.7883 6.3124 93.5169 6.19092 94.2486 6.09171L97.8883 5.63536C98.6741 5.55419 99.451 5.40189 100.209 5.18032C100.938 4.95148 101.392 4.58719 101.574 3.99406L104.063 3.99538ZM90.1995 18.5829C90.8359 18.0805 91.7006 17.8069 92.7922 17.8069C93.8852 17.8069 94.7944 18.0805 95.5226 18.6736C96.2049 19.1747 96.7507 19.8586 97.1601 20.7252C97.5708 21.5459 97.8424 22.5033 97.9789 23.5528C98.1166 24.6009 98.2072 25.6491 98.2072 26.6526C98.2072 27.1996 98.1612 27.9282 98.0707 28.8857C97.9788 29.7984 97.7978 30.7558 97.433 31.6672C97.0712 32.5834 96.5121 33.4083 95.7955 34.0831C95.0673 34.7669 94.0216 35.0865 92.7476 35.0865C91.4736 35.0865 90.5171 34.7669 89.7902 34.0831C89.0772 33.4144 88.5315 32.5867 88.1973 31.6672C87.8418 30.7449 87.6123 29.7788 87.515 28.7949C87.4341 27.992 87.3885 27.1859 87.3786 26.379C87.3786 24.7824 87.515 23.5067 87.7879 22.594C88.0609 21.6827 88.3338 20.908 88.6526 20.3609C89.016 19.6771 89.5619 19.0839 90.1995 18.5829ZM10.4383 37.6392C7.25259 37.7313 3.47643 37.0921 0.564929 35.6796L1.7025 32.6706C3.47643 33.8095 6.16094 34.6762 9.4372 34.7222C12.7135 34.7669 15.7155 33.4465 17.5813 30.7111C18.4 29.5248 18.9918 28.1571 19.3565 26.6078C19.674 25.056 19.8564 23.4607 19.8105 21.7734C19.7801 20.5934 19.6431 19.4185 19.4011 18.2633C19.1945 17.3276 18.9051 16.4121 18.5365 15.5278C18.2521 14.7953 17.8694 14.105 17.3989 13.4762C16.9895 12.9291 16.5802 12.428 16.1262 12.0164C15.2156 11.1971 14.2145 10.6039 13.031 10.1489C10.7112 9.2362 8.25502 9.46503 5.97856 10.5132L5.91427 10.5461C6.82401 10.9665 7.55406 11.6987 7.97292 12.6108C8.19991 13.1106 8.33637 13.613 8.33637 14.114C8.33637 15.2082 7.97292 16.1657 7.20011 16.9416C6.42729 17.7175 5.4288 18.1265 4.29254 18.1726C3.20352 18.1726 2.24832 17.8069 1.47551 17.0784C0.658086 16.3498 0.25003 15.3924 0.25003 14.2982C0.239672 14.053 0.251529 13.8074 0.285456 13.5643L0.246094 13.5235C1.7025 7.32268 10.7112 5.81816 16.1708 7.50548C18.1271 8.09729 19.7659 8.96397 21.1764 10.0582C22.7233 11.2891 24.0419 12.8857 25.089 14.8453C26.1806 16.8048 26.7264 19.1313 26.7724 21.8668C26.7724 22.7782 26.7265 23.6896 26.59 24.647C26.4549 25.6286 26.2107 26.592 25.8618 27.5192C25.4983 28.5227 25.0431 29.4801 24.4513 30.4388C23.842 31.4657 23.0915 32.4016 22.2221 33.219C21.4323 34.0243 20.546 34.7285 19.5835 35.3154C18.6823 35.8663 17.7202 36.3103 16.7166 36.6384C15.7155 36.9566 14.7144 37.2302 13.6687 37.367C12.6216 37.5511 11.53 37.6392 10.4383 37.6392ZM31.5956 32.4418C31.5956 34.6775 30.4134 35.0405 28.5017 35.0865V37.1842H40.2409V35.1773C38.3292 35.1326 37.2375 34.7669 37.2375 32.5338V27.1089H45.9733V32.5352C45.9733 34.7683 44.8817 35.1339 42.9713 35.1786V37.1855H54.7091V35.1773C52.7988 35.1326 51.6153 34.7669 51.6153 32.5338V20.1321C51.6153 17.899 52.7988 17.5334 54.7091 17.4887V15.4831H42.97V17.49C44.8817 17.5347 45.9746 17.9003 45.9746 20.1334V24.6036H37.1929V20.0887C37.1929 17.9003 38.2386 17.5347 40.1044 17.4453H40.1962V15.4371H28.5017V17.4427C30.4134 17.4887 31.5956 17.853 31.5956 20.0861V32.4418ZM67.1319 14.8913C68.8153 14.8913 70.3163 15.1188 71.5903 15.6199C72.7699 16.0749 73.8744 16.7053 74.8666 17.49C75.276 17.8543 75.6853 18.2659 76.1393 18.8117C76.5959 19.3128 77.0053 19.9519 77.3228 20.6358C77.6876 21.3644 77.9605 22.1403 78.1888 23.0517C78.4379 24.0658 78.56 25.1071 78.5522 26.1515C78.5522 28.3872 78.1875 30.2547 77.4146 31.7145C76.6405 33.1743 75.6853 34.3132 74.5478 35.1786C73.4073 36.0251 72.1069 36.6301 70.7257 36.9566C69.3152 37.2762 67.9966 37.459 66.7671 37.459C65.1756 37.459 63.6733 37.2302 62.2628 36.7752C60.9076 36.3501 59.6534 35.652 58.5771 34.7235C57.485 33.7613 56.6288 32.5597 56.075 31.2121C55.4846 29.7997 55.1644 28.1584 55.1644 26.1975C55.1644 24.1459 55.4833 22.4139 56.1655 20.9541C56.7567 19.5916 57.6614 18.3887 58.8055 17.444C59.8971 16.5326 61.1711 15.8934 62.6275 15.4384C64.038 15.1188 65.539 14.8913 67.1319 14.8913ZM66.7671 17.3072C66.1767 17.3072 65.6296 17.3993 65.1756 17.5807C64.7609 17.7433 64.3763 17.9744 64.038 18.2646C63.7192 18.5382 63.4463 18.8117 63.218 19.1313C63.0041 19.3982 62.821 19.6885 62.6721 19.9966C62.3546 20.5898 62.0817 21.3644 61.8075 22.3678C61.5346 23.3253 61.3981 24.647 61.3981 26.2435C61.3981 27.0642 61.49 27.9756 61.6264 28.979C61.7629 29.9812 62.0358 30.9846 62.4452 31.896C62.83 32.7732 63.3869 33.5639 64.0826 34.2212C64.7649 34.8603 65.6755 35.1786 66.7212 35.1786C67.8142 35.1786 68.7234 34.8603 69.4516 34.2212C70.1754 33.5888 70.737 32.7913 71.0891 31.896C71.4998 30.9846 71.7714 30.0285 71.9092 29.0237C72.0456 28.0216 72.1362 27.1562 72.1362 26.3803C72.1362 25.7412 72.0443 24.9205 71.9092 23.9184C71.7641 22.9041 71.5044 21.9096 71.135 20.9541C70.7691 20.0134 70.2114 19.1597 69.4976 18.4474C68.8599 17.6268 67.9034 17.3072 66.7671 17.3072ZM109.353 31.0306C109.854 31.0306 110.308 31.1214 110.764 31.3042C111.219 31.4857 111.584 31.7592 111.947 32.0788C112.266 32.3984 112.538 32.7627 112.766 33.219C112.993 33.6741 113.085 34.0844 113.085 34.5868C113.085 35.5442 112.72 36.4095 111.993 37.0934C111.265 37.7773 110.4 38.0969 109.353 38.0969C108.352 38.0969 107.533 37.7773 106.805 37.0934C106.077 36.4095 105.759 35.5889 105.759 34.5868C105.759 33.5833 106.123 32.7166 106.805 32.0328C107.487 31.3489 108.353 31.0306 109.353 31.0306Z" fill="#9F9F9F"/>
</svg>
