<svg width="136" height="42" viewBox="0 0 136 42" fill="none" xmlns="http://www.w3.org/2000/svg">
<path d="M82.9544 13.6307C80.9656 13.6307 79.0354 14.1614 77.3391 15.1045C77.3391 10.0344 77.3976 5.613 77.5146 3.90332L67.1609 5.90783V6.85094L68.1554 6.96888C69.6177 7.14577 70.1442 8.03027 70.3197 9.97547C70.6122 13.7486 70.6122 33.7344 70.3197 36.9179C73.2445 37.6251 76.169 37.9789 79.1524 38.0379C87.4 38.0379 92.3721 32.9089 92.3721 24.7732C92.3721 18.2883 88.336 13.6307 82.9544 13.6307ZM79.3864 36.3872C78.8013 36.3872 78.2163 36.3282 77.6316 36.2103C77.4561 33.9699 77.3391 24.7143 77.3976 16.5787C78.1578 16.2838 78.9768 16.1659 79.7959 16.1659C83.1884 16.1659 85.1187 20.1746 85.1187 25.127C85.0602 31.553 82.7207 36.3872 79.3864 36.3872ZM28.1449 13.8666L26.5657 14.2793C25.1031 9.56305 22.8803 6.85094 18.6687 6.85094H13.2875C13.0534 9.9165 12.9364 14.9279 12.9949 20.1746L16.6215 20.057C19.0198 19.998 20.0143 18.1704 20.599 15.5173H21.9446V26.6598H20.599C20.0143 23.9477 19.0198 22.1791 16.563 22.0611L12.9364 21.9432C12.9949 25.9522 13.112 29.3126 13.229 31.3171C13.4626 34.2648 14.2817 35.5617 16.3875 35.9155L18.2007 36.0924V37.4482H0.710938V36.0924L2.17318 35.9155C4.22045 35.6206 5.09801 34.3237 5.33202 31.3171C5.74155 26.424 5.80005 16.2838 5.33202 10.6241C5.09801 7.67647 4.27896 6.37956 2.17318 6.08473L0.710938 5.90783V4.61092H28.0279L28.1449 13.8666ZM36.8606 13.3359C44.6405 13.3359 48.4425 18.6418 48.4425 25.6574C48.4425 32.673 44.114 38.0379 36.3344 38.0379C28.5545 38.0379 24.6939 32.732 24.6939 25.7753C24.7524 18.7597 29.081 13.3359 36.8606 13.3359ZM36.5099 14.869C33.0585 14.869 32.1225 19.5263 32.1225 25.7164C32.1225 31.9068 33.6436 36.5641 36.8021 36.5641C39.9609 36.5641 41.1891 31.9068 41.1891 25.7164C41.1891 19.5263 39.6099 14.869 36.5099 14.869ZM94.3024 25.9522C94.3024 19.4673 98.3387 13.3948 106.352 13.3948C112.845 13.3948 115.946 18.2294 116.004 24.5964H101.497C101.322 30.374 104.247 34.6186 109.804 34.6186C112.202 34.6186 113.547 34.0289 115.068 32.9089L115.712 33.7344C114.132 35.9744 110.739 38.0969 106.294 38.0969C99.216 38.0379 94.3024 33.0858 94.3024 25.9522ZM101.497 22.9456L108.751 22.7687C108.809 19.5263 108.283 14.869 105.651 14.869C103.077 14.9279 101.556 19.2904 101.497 22.9456ZM134.605 20.6463L133.436 20.9411C132.207 16.8142 130.277 15.0455 127.469 15.0455C125.597 15.0455 124.252 16.4607 124.252 18.5239C124.252 20.5873 125.773 21.6487 130.16 23.3584C134.547 25.0681 135.775 26.7778 135.775 30.0792C135.775 35.0313 132.032 38.0379 125.831 38.0379C123.023 38.0379 120.274 37.5072 117.642 36.5641L117.466 29.7254L118.636 29.4305C120.333 34.2058 122.555 35.9155 125.48 35.9155C128.405 35.9155 129.341 34.1468 129.341 32.2602C129.341 30.374 128.288 29.3126 124.31 27.8978C120.333 26.4829 117.993 24.9501 117.993 20.8232C117.993 16.6966 121.503 13.3359 127.352 13.3359C130.043 13.3359 132.617 13.8076 134.371 14.5741L134.605 20.6463ZM66.1667 20.4694C63.0078 18.3473 59.615 19.2904 58.9718 20.4104C58.7378 24.5963 58.7963 28.8409 59.0303 33.0268C59.2058 34.9723 59.7905 35.8565 61.1946 36.0334L63.0663 36.1513V37.5072H48.6765V36.1513L49.6711 36.0334C51.1333 35.8565 51.6599 34.9723 51.8354 33.0268C52.1279 28.4874 52.1279 23.9477 51.8354 19.4084C51.6599 17.4628 51.0748 16.5787 49.6711 16.4018L48.6765 16.2838V15.3404L59.0303 13.3359L58.9133 18.7597C61.3116 13.1593 66.1082 12.3927 68.682 13.9845L66.1667 20.4694Z" fill="#ABABAB"/>
</svg>
