<svg width="117" height="42" viewBox="0 0 117 42" fill="none" xmlns="http://www.w3.org/2000/svg">
<path fill-rule="evenodd" clip-rule="evenodd" d="M8.10938 11.7543V3.87207H31.9053V11.7543H27.4538V30.1586H31.9053V37.4831H8.10938V30.1586H12.5735V11.7543H8.10938ZM33.1641 19.1035V11.7666H47.8552V16.8355C48.0948 16.6496 48.3344 16.3646 48.5236 16.1291C51.2096 13.1175 54.2739 12.0269 58.3093 12.0269C63.9714 12.0269 68.5742 14.2825 68.5742 20.4668V30.1585H71.5503C71.5566 30.1771 71.566 30.1957 71.5755 30.2143L71.5755 30.2143C71.585 30.2329 71.5944 30.2515 71.6007 30.27V37.483H53.4164V30.1585H56.8717V22.4869C56.8717 20.1818 55.1945 19.1407 53.0381 19.1407C50.289 19.1407 48.2335 21.1237 48.2335 23.813V30.1585H51.7897V37.483H33.1641V30.1585H36.5311V19.1035H33.1641ZM86.9801 11.9401C78.6824 11.9401 70.5234 15.9432 70.5234 25.04C70.5234 26.9734 70.9018 28.6837 71.5575 30.1585H71.6079V30.2701C74.0922 35.686 80.4983 38.1275 86.9801 38.1275C92.2638 38.1275 99.6157 36.8758 101.268 28.882L101.343 28.0268H91.6586H91.3307C91.3307 30.7286 89.3382 32.0051 87.0683 32.0051C82.743 32.0051 82.4151 28.4606 82.4151 25.0648V24.9904C82.4151 21.5946 82.7556 18.0625 87.0683 18.0625C90.4606 18.0625 91.0406 20.9626 91.1667 23.7015L101.217 22.6109C100.145 12.5598 90.0696 11.9277 87.5475 11.9277C87.1818 11.9277 86.9801 11.9401 86.9801 11.9401ZM104.761 37.6067C102.428 37.6067 100.523 35.7477 100.523 33.4425C100.523 31.1497 102.415 29.2783 104.761 29.2783C107.093 29.2783 108.998 31.1373 108.998 33.4425C108.998 35.7477 107.106 37.6067 104.761 37.6067Z" fill="#A6A6A6"/>
</svg>
